<?xml version="1.0" encoding="utf-8"?>
<!-- Generator: Adobe Illustrator 24.2.0, SVG Export Plug-In . SVG Version: 6.00 Build 0)  -->
<svg version="1.1" id="Layer_1" xmlns="http://www.w3.org/2000/svg" xmlns:xlink="http://www.w3.org/1999/xlink" x="0px" y="0px"
	 viewBox="0 0 61.5 78.5" style="enable-background:new 0 0 61.5 78.5;" xml:space="preserve">
<style type="text/css">
	.st0{fill:#FFFFFF;}
</style>
<g>
	<g>
		<circle class="st0" cx="41.2" cy="40.8" r="1.7"/>
		<path class="st0" d="M24.6,38.2c0.5,0.3,1.1,0.1,1.4-0.4s0.1-1.1-0.4-1.4c-9-5.1-14.4,0.5-14.5,0.6c-0.4,0.4-0.4,1,0,1.4
			c0.2,0.2,0.4,0.3,0.7,0.3s0.5-0.1,0.7-0.3C12.6,38.4,16.9,33.9,24.6,38.2z"/>
		<circle class="st0" cx="18.9" cy="40.8" r="1.7"/>
		<path class="st0" d="M34.6,36.4c-4.7,2.3-5,7-5.3,11.1c0,0.5-0.1,1-0.1,1.6c-0.1,1-0.1,1.9-0.1,2.9c0,0.9-0.1,1.9-0.1,2.8
			c0,0.3,0.1,0.6,0.3,0.8c0.2,0.2,0.4,0.2,0.6,0.2c0.1,0,0.2,0,0.2,0L37,54c0.5-0.1,0.9-0.7,0.7-1.2c-0.1-0.5-0.7-0.9-1.2-0.7
			L31,53.5c0-0.5,0-1,0.1-1.5c0-0.9,0.1-1.9,0.1-2.8c0-0.5,0.1-1.1,0.1-1.6c0.3-3.9,0.5-7.6,4.2-9.4c7.9-3.9,12,0,12.1,0.2
			c0.4,0.4,1,0.4,1.4,0s0.4-1,0-1.4C48.8,36.8,43.9,31.9,34.6,36.4z"/>
		<path class="st0" d="M42,59.9c-8.1,2.5-13.9,2.4-20.1-0.3c-0.5-0.2-1.1,0-1.3,0.5c-0.2,0.5,0,1.1,0.5,1.3
			c3.7,1.6,7.3,2.3,10.6,2.3c4,0,7.6-0.9,10.9-1.9c0.5-0.2,0.8-0.7,0.7-1.2C43.1,60,42.6,59.8,42,59.9z"/>
		<path class="st0" d="M61.1,37.5c-0.4-1.1-1-1.8-1.8-2.2c-1.2-0.5-2.3-0.2-3.2,0.2c0.2-1.3,0.2-2.2,0-2.8c0.1-0.5,0.1-1,0.1-1.4
			c0.1-0.8,0.2-2,0.5-3.3c0.8-5.2,2.1-13.2-1.3-17c-1.2-1.4-2.9-2.1-5.1-2.2c-0.2-0.4-0.4-1-0.5-1.4c-0.3-0.9-0.4-1.2-0.5-1.3
			C45.8-0.6,35.4-0.2,32-0.1c-5,0.2-12.4,0.9-18.2,4.5C5.6,9.7,5.3,17.7,5.2,18.1l0.4,11.8c0,0,0.1,1.4,0.2,3.4
			C5.8,34.1,5.9,35,6,36c-1-0.6-2.4-1.2-3.8-0.5c-0.8,0.4-1.5,1.1-1.8,2.2c-0.8,2.4-0.2,6,1.8,9.6c0.4,0.7,0.7,1.6,1,2.5
			c1,2.7,2.2,6.1,5.7,6.3c1.2,4,2.8,8,4.8,11.9c3.5,6.7,10.1,10.7,17.6,10.7c0.8,0,1.6,0,2.4-0.1c7.3-1,13.3-6.8,17.2-16.9
			c0.7-1.9,1.2-3.8,1.6-5.7c3.6,0,4.9-3.5,5.9-6.3c0.3-0.9,0.6-1.8,1-2.5C61.3,43.5,62,39.9,61.1,37.5z M54.3,33.6L54.3,33.6
			L54.3,33.6L54.3,33.6z M5,49c-0.4-1-0.7-2-1.1-2.8c-2-3.7-2.1-6.5-1.6-8c0.2-0.5,0.4-0.9,0.7-1c1.2-0.5,2.8,1.1,2.8,1.1
			c0.1,0.1,0.2,0.2,0.4,0.2c0.1,0.8,0.1,1.5,0.2,2.3C6,40.5,5.5,40.3,5,40.2s-1.1,0.2-1.2,0.7C3.7,41.4,4,42,4.5,42.1
			c1.3,0.4,2,1.6,2,1.6c0,0.1,0.1,0.2,0.2,0.2C6.8,45,6.9,46,7,46.7c0.3,2.3,0.8,4.7,1.3,7C6.7,53.3,5.9,51.6,5,49z M49,60.9
			c-2.5,6.5-7.3,14.5-15.6,15.4c-7.8,0.9-14.5-2.7-18-9.5c-3.5-6.7-5.7-13.6-6.5-20.4c-0.3-2.6-0.8-9.1-1-13l3.3-4
			c0.1-0.2,0.2-0.4,0.2-0.6c0,0,0-3.2,0.3-6.5c0.4-3.7,5.4-5.7,8.8-5.4c1.3,0.1,2.7,0.3,4,0.6c2.1,0.3,4.3,0.7,6.4,0.7h0.4
			c2.2,0.1,4.3-0.3,6.4-0.7c1.3-0.2,2.7-0.4,4-0.6c3.3-0.3,8.4,1.7,8.8,5.4c0.3,3.3,0.3,6.5,0.3,6.5c0,0.2,0.1,0.5,0.2,0.6l3.3,4
			c0.2,0.8-0.5,3.8-0.8,5c-0.2,0.6-0.3,1.2-0.3,1.4c-0.4,2.7-0.8,5.3-1.3,7.9c-0.1,0.8-0.3,1.7-0.4,2.5C50.9,54,50.3,57.5,49,60.9z
			 M57.6,46.2C57.2,47,56.8,48,56.5,49c-1,2.8-1.8,4.6-3.6,4.9c0.2-1.1,0.4-2.2,0.5-3.3c0.1-0.8,0.3-1.6,0.4-2.5
			c0.2-1.3,0.4-2.6,0.6-4c0.3-0.1,0.5-0.3,0.6-0.5c0,0,0.6-1.2,2-1.6c0.5-0.1,0.8-0.7,0.7-1.2s-0.7-0.9-1.2-0.7
			c-0.6,0.2-1.2,0.5-1.6,0.8c0-0.2,0.1-0.5,0.1-0.7s0.1-0.7,0.3-1.3c0-0.2,0.1-0.3,0.1-0.5c0.1,0,0.2-0.1,0.2-0.2
			c0,0,1.6-1.6,2.8-1.1c0.3,0.1,0.6,0.5,0.7,1C59.7,39.6,59.6,42.5,57.6,46.2z"/>
	</g>
</g>
</svg>
