<?xml version="1.0" encoding="utf-8"?>
<!-- Generator: Adobe Illustrator 24.2.0, SVG Export Plug-In . SVG Version: 6.00 Build 0)  -->
<svg version="1.1" id="Layer_1" xmlns="http://www.w3.org/2000/svg" xmlns:xlink="http://www.w3.org/1999/xlink" x="0px" y="0px"
	 viewBox="0 0 59 46" style="enable-background:new 0 0 59 46;" xml:space="preserve">
<style type="text/css">
	.st0{fill:#FFFFFF;}
</style>
<g>
	<path class="st0" d="M58,0H34c-0.6,0-1,0.4-1,1v19l0,0c-1.5,0-2.8,1-3.2,2.5c0,0.1-0.1,0.2-0.1,0.4v4.4c0,0.6-0.4,1.1-1,1.1l0,0H26
		V1c0-0.6-0.4-1-1-1H1C0.4,0,0,0.4,0,1v44c0,0.6,0.4,1,1,1h24c0.6,0,1-0.4,1-1V30.3h2.8c1.7,0,3-1.4,3-3.1l0,0v-4.1
		c0-0.6,0.6-1.1,1.2-1.1l0,0v23c0,0.6,0.4,1,1,1h24c0.6,0,1-0.4,1-1V1C59,0.4,58.6,0,58,0z M24,14H4.7L24,2.7V14z M21.3,2L2,13.3V2
		H21.3z M6,44v-1h14v1H6z M24,44h-2v-2c0-0.6-0.4-1-1-1H5c-0.6,0-1,0.4-1,1v2H2V16h22v12.3h-2V22c0-0.6-0.4-1-1-1H5
		c-0.6,0-1,0.4-1,1v16c0,0.6,0.4,1,1,1h16c0.6,0,1-0.4,1-1v-7.7h2V44z M17.8,28.3c-0.7-1.8-2.7-2.7-4.5-2s-2.7,2.7-2,4.5
		s2.7,2.7,4.5,2c1.1-0.4,1.9-1.3,2.2-2.5h2V37H6V23h14v5.3H17.8z M16,29.5c0,0.8-0.7,1.5-1.5,1.5S13,30.3,13,29.5s0.7-1.5,1.5-1.5
		S16,28.7,16,29.5z M36.5,24.5c0.4,0.4,1,0.4,1.4,0l2.8-2.8l0.1-0.1l0,0c0.1-0.1,0.2-0.3,0.2-0.5c0-0.1,0-0.1,0-0.2l0,0
		c0-0.2-0.1-0.5-0.3-0.6l0,0l-2.8-2.8c-0.4-0.4-1-0.4-1.4,0s-0.4,1,0,1.4l1.1,1.1H35V2h22v26H35v-6h2.6l-1.1,1
		C36.1,23.4,36.1,24,36.5,24.5C36.5,24.4,36.5,24.4,36.5,24.5L36.5,24.5z M35,30h19.7L35,43.1V30z M37.3,44L57,30.9V44H37.3z"/>
	<rect x="4" y="18" class="st0" width="6" height="2"/>
	<rect x="37" y="4" class="st0" width="9" height="2"/>
	<rect x="37" y="8" class="st0" width="18" height="2"/>
	<rect x="37" y="12" class="st0" width="13" height="2"/>
	<rect x="42" y="16" class="st0" width="13" height="2"/>
	<rect x="42" y="20" class="st0" width="13" height="2"/>
	<rect x="42" y="24" class="st0" width="10" height="2"/>
</g>
</svg>
