<?xml version="1.0" encoding="utf-8"?>
<!-- Generator: Adobe Illustrator 24.2.0, SVG Export Plug-In . SVG Version: 6.00 Build 0)  -->
<svg version="1.1" id="Layer_1" xmlns="http://www.w3.org/2000/svg" xmlns:xlink="http://www.w3.org/1999/xlink" x="0px" y="0px"
	 viewBox="0 0 52.9 64.7" style="enable-background:new 0 0 52.9 64.7;" xml:space="preserve">
<style type="text/css">
	.st0{fill:#FFFFFF;}
</style>
<g>
	<rect x="17.9" y="5.2" transform="matrix(0.9238 -0.3828 0.3828 0.9238 -1.2792 7.6745)" class="st0" width="1.5" height="3.7"/>
	<rect x="6.5" y="16.5" transform="matrix(0.3827 -0.9239 0.9239 0.3827 -12.4814 17.9984)" class="st0" width="1.5" height="3.7"/>
	<rect x="5.2" y="33.6" transform="matrix(0.9239 -0.3826 0.3826 0.9239 -12.6075 5.3098)" class="st0" width="3.7" height="1.5"/>
	<rect x="45" y="32.8" transform="matrix(0.3826 -0.9239 0.9239 0.3826 -3.7402 63.6486)" class="st0" width="1.5" height="3.7"/>
	<rect x="44" y="17.8" transform="matrix(0.9238 -0.3828 0.3828 0.9238 -3.6159 18.9594)" class="st0" width="3.7" height="1.5"/>
	<rect x="32.8" y="6.5" transform="matrix(0.3826 -0.9239 0.9239 0.3826 14.7201 36.4698)" class="st0" width="3.7" height="1.5"/>
	<rect x="25.9" class="st0" width="1.5" height="7.3"/>
	<rect x="9.7" y="6.6" transform="matrix(0.7071 -0.7071 0.7071 0.7071 -4.1751 10.4156)" class="st0" width="1.5" height="7.3"/>
	<rect y="25.6" class="st0" width="7.3" height="1.5"/>
	<rect x="6.6" y="41.7" transform="matrix(0.7071 -0.7071 0.7071 0.7071 -27.0391 19.6705)" class="st0" width="7.3" height="1.5"/>
	
		<rect x="41.8" y="39.1" transform="matrix(0.7071 -0.7071 0.7071 0.7071 -17.7491 42.6255)" class="st0" width="1.5" height="7.3"/>
	<rect x="45.6" y="25.9" class="st0" width="7.3" height="1.5"/>
	<rect x="39.1" y="9.7" transform="matrix(0.7071 -0.7071 0.7071 0.7071 5.1131 33.288)" class="st0" width="7.3" height="1.5"/>
	<path class="st0" d="M43,26.3c0-9.2-7.5-16.6-16.6-16.6c-9.2,0-16.6,7.5-16.6,16.6c0,8.1,5.9,14.9,13.6,16.3v3.1
		c-1.4,0.1-2.5,1.2-2.5,2.6v10.9c0,3.1,2.5,5.5,5.5,5.5c3.1,0,5.5-2.5,5.5-5.5V48.3c0-1.4-1.1-2.6-2.5-2.6v-3.1
		C37.1,41.2,43,34.4,43,26.3z M26.4,11.2c8.3,0,15.1,6.8,15.1,15.1c0,3.3-1.1,6.4-2.9,8.9c-0.1-0.8-0.1-1.4-0.1-1.4c0-1-0.3-2-0.9-3
		c-0.6-1-1.6-1.8-2.7-2.3L30.7,27l-3.8,6.9h-1.1L22.1,27l-4.2,1.5c-1.2,0.4-2.1,1.2-2.7,2.2s-0.9,2-0.9,2.9c0,0-0.1,0.6-0.1,1.5
		c-1.8-2.5-2.9-5.5-2.9-8.9C11.3,17.9,18.1,11.2,26.4,11.2z M15.5,36.8c0.1-1.7,0.3-2.9,0.3-3c0-0.9,0.4-1.7,0.7-2.3
		c0.4-0.7,1.1-1.3,1.9-1.6l3-1.1l3.5,6.5h2.9l3.5-6.5l3,1.1c0.8,0.3,1.5,0.9,1.9,1.6c0.3,0.5,0.7,1.4,0.7,2.3c0,0,0.1,1.2,0.3,2.9
		c-2.7,2.8-6.6,4.6-10.8,4.6C22.1,41.4,18.3,39.6,15.5,36.8z M29.3,47.2c0.6,0,1.1,0.5,1.1,1.1v10.9c0,2.2-1.8,4-4,4s-4-1.8-4-4
		V48.3c0-0.6,0.5-1.1,1.1-1.1h1.4v-4.4c0.5,0,1,0.1,1.5,0.1s1,0,1.5-0.1v4.4H29.3z"/>
	<rect x="25.6" y="58.6" class="st0" width="1.5" height="1.5"/>
	<rect x="25.6" y="55.4" class="st0" width="1.5" height="1.5"/>
	<rect x="25.6" y="52.2" class="st0" width="1.5" height="1.4"/>
	<path class="st0" d="M26.2,26.5c3.1,0,5.7-2.5,5.7-5.7s-2.5-5.7-5.7-5.7s-5.7,2.5-5.7,5.7S23.1,26.5,26.2,26.5z M26.2,16.7
		c2.3,0,4.2,1.9,4.2,4.2s-1.9,4.2-4.2,4.2S22,23.2,22,20.9C22,18.5,23.9,16.7,26.2,16.7z"/>
</g>
</svg>
