<?xml version="1.0" encoding="utf-8"?>
<!-- Generator: Adobe Illustrator 24.2.0, SVG Export Plug-In . SVG Version: 6.00 Build 0)  -->
<svg version="1.1" id="Layer_1" xmlns="http://www.w3.org/2000/svg" xmlns:xlink="http://www.w3.org/1999/xlink" x="0px" y="0px"
	 viewBox="0 0 440.1 422.1" style="enable-background:new 0 0 440.1 422.1;" xml:space="preserve">
<style type="text/css">
	.st0{fill:#FFFFFF;}
</style>
<g>
	<path class="st0" d="M33.6,53.7C34.5,53.2,49.2,44,58,27.6c3.5,6.5,8.7,13.5,16.1,18.9c-4.5,5-10.5,12.8-15.2,22.7
		c-0.6-1.1-1.2-2.2-1.9-3.4c-1.9-3.2-6-4.3-9.3-2.4c-3.2,1.9-4.3,6-2.4,9.3c5.6,9.6,7.1,18.4,7.1,18.5c0.5,3.3,3.3,5.7,6.6,5.7h0.1
		c3.3,0,6.1-2.3,6.7-5.6c4.4-24.3,23.5-40.9,23.7-41c1.8-1.5,2.6-3.8,2.3-6.1c-0.3-2.3-1.8-4.3-3.9-5.2C68.7,30.2,64.3,5.9,64.2,5.6
		c-0.6-3.3-3.5-5.7-6.9-5.6s-6.2,2.7-6.5,6.1c-2.1,22-24.1,36-24.3,36.1c-3.2,2-4.2,6.1-2.2,9.3C26.3,54.7,30.4,55.7,33.6,53.7z"/>
	<path class="st0" d="M219.8,180.6c-3.7,0-6.8,3-6.8,6.8v24.8c0,3.7,3,6.8,6.8,6.8c3.7,0,6.8-3,6.8-6.8v-24.8
		C226.6,183.6,223.5,180.6,219.8,180.6z"/>
	<path class="st0" d="M436.4,188l-69.8-36c-0.2-0.1-0.4-0.3-0.6-0.4l-58.6-31.2c-3.3-1.8-7.4-0.5-9.2,2.8c-1.8,3.3-0.5,7.4,2.8,9.2
		l47.8,25.4l-128.6,73.4L91.7,157.9l47.8-25.5c3.3-1.8,4.6-5.9,2.8-9.2c-1.8-3.3-5.9-4.6-9.2-2.8l-57.7,30.7c-1.6,0.5-3.1,1.5-4,3.1
		c-1.9,3.2-0.7,7.4,2.5,9.2l132.5,75.7L150,269.4l-129.1-75L52.7,178c3.3-1.7,4.6-5.8,2.9-9.1c-1.7-3.3-5.8-4.6-9.1-2.9L3.7,188
		c-2.2,1.1-3.6,3.4-3.7,5.9c-0.1,2.5,1.2,4.8,3.4,6l143,83.1c1.1,0.6,2.2,0.9,3.4,0.9c1.1,0,2.2-0.3,3.2-0.8l60-32.1v152.1
		L84.4,329.7v-57.5c0-3.7-3-6.8-6.8-6.8c-3.7,0-6.8,3-6.8,6.8v61.4c0,2.4,1.3,4.7,3.4,5.9l140.3,80.2c0.5,0.6,1.1,1.1,1.8,1.5
		c1.1,0.6,2.2,0.9,3.4,0.9c0.1,0,0.3,0,0.4,0c0.1,0,0.3,0,0.4,0c1.2,0,2.4-0.3,3.4-0.9c0.7-0.4,1.3-0.9,1.8-1.5L366,339.5
		c2.1-1.2,3.4-3.5,3.4-5.9v-60.5c0-3.7-3-6.8-6.8-6.8s-6.8,3-6.8,6.8v56.6l-128.6,73.5V242.8l135.5-77.4l56.2,29l-129.1,75
		L257.3,252c-3.3-1.8-7.4-0.5-9.2,2.8s-0.5,7.4,2.8,9.2l35.8,19.1c1,0.5,2.1,0.8,3.2,0.8c1.2,0,2.4-0.3,3.4-0.9l143.1-83.2
		c2.1-1.2,3.4-3.6,3.4-6C440,191.4,438.6,189.1,436.4,188z"/>
	<path class="st0" d="M106.5,60.8c0,0.2,0.1,0.4,0.1,0.6c0.1,0.2,0.1,0.4,0.2,0.6c0.1,0.2,0.2,0.4,0.3,0.6c0.1,0.2,0.2,0.4,0.3,0.6
		c0.1,0.2,0.2,0.3,0.4,0.5c0.1,0.2,0.3,0.4,0.5,0.6c0.1,0.1,0.1,0.1,0.1,0.2L215,171.7l0,0l0.1,0.1c0.3,0.3,0.6,0.5,0.9,0.7
		c0,0,0,0,0.1,0c0.3,0.2,0.7,0.4,1,0.6c0,0,0.1,0,0.1,0.1l0,0c0.1,0,0.1,0,0.2,0.1c0.3,0.1,0.5,0.2,0.8,0.2c0.1,0,0.1,0,0.2,0.1
		c0.1,0,0.1,0,0.2,0c0.4,0.1,0.8,0.1,1.1,0.1l0,0l0,0l0,0l0,0c0.4,0,0.8,0,1.1-0.1c0.1,0,0.1,0,0.2,0c0.1,0,0.1,0,0.2-0.1
		c0.3-0.1,0.5-0.1,0.8-0.2c0.1,0,0.1,0,0.2-0.1l0,0c0,0,0.1,0,0.1-0.1c0.4-0.2,0.7-0.3,1-0.6l0,0l0,0l0,0c0.3-0.2,0.6-0.4,0.9-0.7
		l0.1-0.1l0,0L331.2,64.4c0.1-0.1,0.1-0.1,0.1-0.2c0.2-0.2,0.3-0.4,0.5-0.6c0.1-0.2,0.3-0.3,0.4-0.5s0.2-0.4,0.3-0.6
		c0.1-0.2,0.2-0.4,0.3-0.6c0.1-0.2,0.1-0.4,0.2-0.6c0.1-0.2,0.1-0.4,0.1-0.6c0-0.2,0-0.4,0.1-0.6c0-0.2,0-0.4,0-0.7
		c0-0.2,0-0.4-0.1-0.6c0-0.2-0.1-0.5-0.1-0.7c0-0.1,0-0.2,0-0.2c0-0.1-0.1-0.2-0.1-0.3c-0.1-0.2-0.2-0.5-0.3-0.7
		c-0.1-0.2-0.2-0.4-0.3-0.6c-0.1-0.2-0.2-0.4-0.4-0.6c-0.1-0.2-0.3-0.4-0.4-0.5s-0.1-0.2-0.2-0.3l-45-46.4c-1.3-1.3-3-2.1-4.9-2.1
		H158.2c-1.8,0-3.6,0.7-4.9,2.1l-45,46.4c-0.1,0.1-0.1,0.2-0.2,0.3c-0.2,0.2-0.3,0.4-0.4,0.6c-0.1,0.2-0.2,0.4-0.4,0.6
		c-0.1,0.2-0.2,0.4-0.3,0.6c-0.1,0.2-0.2,0.5-0.3,0.7c0,0.1-0.1,0.2-0.1,0.3s0,0.2,0,0.3c-0.1,0.2-0.1,0.5-0.1,0.7s0,0.4-0.1,0.6
		c0,0.2,0,0.4,0,0.7C106.5,60.3,106.5,60.5,106.5,60.8z M219.8,148.9l-24.6-60.7h24.6h24.6L219.8,148.9z M161.1,20h117.5l35,36.1
		l-34.5,9.3l-18.7-35.5c-1.7-3.3-5.8-4.6-9.1-2.8c-3.3,1.7-4.6,5.8-2.8,9.1l21.2,40.4c1.2,2.3,3.5,3.6,6,3.6c0.6,0,1.2-0.1,1.8-0.2
		l26.4-7.2l-65.1,65.5l22-54.3c0.8-2.1,0.6-4.5-0.7-6.3c-1.3-1.9-3.4-3-5.6-3h-34.6h-34.6c-2.3,0-4.4,1.1-5.6,3
		c-1.3,1.9-1.5,4.2-0.7,6.3l22,54.3l-65.1-65.5l26.4,7.2c0.6,0.2,1.2,0.2,1.8,0.2c2.5,0,4.8-1.4,6-3.6l21.2-40.4
		c1.7-3.3,0.5-7.4-2.8-9.1s-7.4-0.5-9.1,2.8l-18.7,35.5l-34.5-9.3L161.1,20z"/>
	<path class="st0" d="M351.3,100.2c0.8-0.5,15.6-9.8,24.4-26.1c3.5,6.5,8.7,13.5,16.1,18.9c-4.5,5-10.5,12.8-15.2,22.7
		c-0.6-1.1-1.2-2.2-1.9-3.4c-1.9-3.2-6-4.3-9.3-2.4s-4.3,6-2.4,9.3c5.6,9.6,7.1,18.4,7.1,18.5c0.5,3.3,3.3,5.7,6.6,5.7h0.1
		c3.3,0,6.1-2.3,6.7-5.6c4.4-24.3,23.5-40.9,23.7-41c1.8-1.5,2.6-3.8,2.3-6.1c-0.3-2.3-1.8-4.3-3.9-5.2
		C386.5,76.7,382,52.4,382,52.2c-0.6-3.3-3.5-5.7-6.9-5.6c-3.4,0.1-6.2,2.7-6.5,6.1c-2.1,22-24.1,36-24.3,36.1
		c-3.2,2-4.2,6.1-2.2,9.3C344,101.2,348.1,102.2,351.3,100.2z"/>
</g>
</svg>
