<svg xmlns="http://www.w3.org/2000/svg" xmlns:xlink="http://www.w3.org/1999/xlink" version="1.1" x="0px" y="0px" viewBox="0 0 128 160" style="enable-background:new 0 0 128 128;" xml:space="preserve"><circle cx="52" cy="60" r="2"/><circle cx="64" cy="47" r="2"/><circle cx="76" cy="35" r="2"/><circle cx="41" cy="112" r="2"/><path d="M122,12H6c-3.3085938,0-6,2.6914063-6,6v78c0,3.3085938,2.6914063,6,6,6h50v8h-7c-1.1044922,0-2,0.8955078-2,2  s0.8955078,2,2,2h28.4395142l-1.8833008-4H72v-7.5527344L69.906311,98H6c-1.1030273,0-2-0.897522-2-2v-2h64.2689819  c-0.3172607-1.3369141-0.355896-2.6943359-0.1439819-4H4V66h7c1.1044922,0,2-0.8955078,2-2s-0.8955078-2-2-2H4v-4h13  c1.1044922,0,2-0.8955078,2-2s-0.8955078-2-2-2H4v-4h7c1.1044922,0,2-0.8955078,2-2s-0.8955078-2-2-2H4V18  c0-1.1025391,0.8969727-2,2-2h116c1.1030273,0,2,0.8974609,2,2v28h-7c-1.1044922,0-2,0.8955078-2,2s0.8955078,2,2,2h7v4h-13  c-1.1044922,0-2,0.8955078-2,2s0.8955078,2,2,2h13v4h-7c-1.1044922,0-2,0.8955078-2,2s0.8955078,2,2,2h7v24H97.3607788l1.9483032,4  H124v2c0,1.102478-0.8969727,2-2,2h-20.7432251l1.9483032,4H122c3.3085938,0,6-2.6914063,6-6V18  C128,14.6914063,125.3085938,12,122,12z M60,102h8v8h-8V102z"/><path d="M105.3773804,115.5946655L90.6732788,85.4032593C89.7020874,83.3358765,87.6376953,82,85.4141235,82  c-0.3936157,0-0.7784424,0.046875-1.1524048,0.125l-1.5599976-3.1660156C90.7539063,73.1464844,96,63.6884766,96,53  c0-17.671936-14.3267212-32-32-32S32,35.328064,32,53c0,17.671875,14.3267212,32,32,32  c3.0209961,0,5.9403687-0.4277344,8.7108765-1.210022l1.5278931,3.1005859  c-2.0707397,1.694397-2.84375,4.7354126-1.6850586,7.3428345l14.281311,30.3300781  C87.8184204,126.6513672,89.9125977,128,92.1693726,128c0.9042969,0,1.7759399-0.2080078,2.5386353-0.5928345l8.0375977-3.7666016  C105.6469727,122.1776733,106.8275757,118.5683594,105.3773804,115.5946655z M74,43v36.1474609  c-2.5137329,0.9648438-5.2001953,1.5742188-8,1.7734375V55c0-1.1044922-0.8955078-2-2-2s-2,0.8955078-2,2v25.9208984  c-2.8051758-0.1992188-5.4960938-0.8115234-8.0142212-1.7792969C53.9893188,79.093811,54,79.0487671,54,79V68  c0-1.1044922-0.8955078-2-2-2s-2,0.8955078-2,2v9.2333984C41.6392212,72.3837891,36,63.3407593,36,53  c0-15.4395142,12.5604858-28,28-28s28,12.5604858,28,28c0,10.3407593-5.6392212,19.3837891-14,24.2333984V43  c0-1.1044922-0.8955078-2-2-2S74,41.8955078,74,43z M80.5770874,83.6972656l-2.7987671,1.328125l-1.2640991-2.5664063  c0.9541016-0.406311,1.8841553-0.8565063,2.7879639-1.3496094L80.5770874,83.6972656z M100.996582,120.0429688l-8.0371094,3.7666016  c-0.918457,0.4638062-2.0492554,0.0175171-2.5058594-0.9501953L76.190918,92.5692749  c-0.4580078-1.0302124-0.0532227-2.305603,0.8324585-2.7587891l7.6431274-3.6279297  C84.9038086,86.0614624,85.1552734,86,85.4141235,86c0.6908569,0,1.3192749,0.4229126,1.6512451,1.1298828l14.7163086,30.2167969  C102.2783203,118.3651733,101.902771,119.5858765,100.996582,120.0429688z"/><text x="0" y="143" fill="#000000" font-size="5px" font-weight="bold" font-family="'Helvetica Neue', Helvetica, Arial-Unicode, Arial, Sans-serif">Created by priyanka</text><text x="0" y="148" fill="#000000" font-size="5px" font-weight="bold" font-family="'Helvetica Neue', Helvetica, Arial-Unicode, Arial, Sans-serif">from the Noun Project</text></svg>