<?xml version="1.0" encoding="utf-8"?>
<!-- Generator: Adobe Illustrator 24.1.2, SVG Export Plug-In . SVG Version: 6.00 Build 0)  -->
<svg version="1.1" id="Layer_1" xmlns="http://www.w3.org/2000/svg" xmlns:xlink="http://www.w3.org/1999/xlink" x="0px" y="0px"
	 viewBox="0 0 128 116" style="enable-background:new 0 0 128 116;" xml:space="preserve">
<circle cx="52" cy="48" r="2"/>
<circle cx="64" cy="35" r="2"/>
<circle cx="76" cy="23" r="2"/>
<circle cx="41" cy="100" r="2"/>
<path d="M122,0H6C2.7,0,0,2.7,0,6v78c0,3.3,2.7,6,6,6h50v8h-7c-1.1,0-2,0.9-2,2s0.9,2,2,2h28.4l-1.9-4H72v-7.6L69.9,86H6
	c-1.1,0-2-0.9-2-2v-2h64.3c-0.3-1.3-0.4-2.7-0.1-4H4V54h7c1.1,0,2-0.9,2-2s-0.9-2-2-2H4v-4h13c1.1,0,2-0.9,2-2s-0.9-2-2-2H4v-4h7
	c1.1,0,2-0.9,2-2s-0.9-2-2-2H4V6c0-1.1,0.9-2,2-2h116c1.1,0,2,0.9,2,2v28h-7c-1.1,0-2,0.9-2,2s0.9,2,2,2h7v4h-13c-1.1,0-2,0.9-2,2
	s0.9,2,2,2h13v4h-7c-1.1,0-2,0.9-2,2s0.9,2,2,2h7v24H97.4l1.9,4H124v2c0,1.1-0.9,2-2,2h-20.7l1.9,4H122c3.3,0,6-2.7,6-6V6
	C128,2.7,125.3,0,122,0z M60,90h8v8h-8V90z"/>
<path d="M105.4,103.6L90.7,73.4c-1-2.1-3-3.4-5.3-3.4c-0.4,0-0.8,0-1.2,0.1L82.7,67C90.8,61.1,96,51.7,96,41C96,23.3,81.7,9,64,9
	S32,23.3,32,41c0,17.7,14.3,32,32,32c3,0,5.9-0.4,8.7-1.2l1.5,3.1c-2.1,1.7-2.8,4.7-1.7,7.3l14.3,30.3c1,2.1,3.1,3.4,5.3,3.4
	c0.9,0,1.8-0.2,2.5-0.6l8-3.8C105.6,110.2,106.8,106.6,105.4,103.6z M74,31v36.1c-2.5,1-5.2,1.6-8,1.8V43c0-1.1-0.9-2-2-2
	s-2,0.9-2,2v25.9c-2.8-0.2-5.5-0.8-8-1.8c0,0,0-0.1,0-0.1V56c0-1.1-0.9-2-2-2s-2,0.9-2,2v9.2C41.6,60.4,36,51.3,36,41
	c0-15.4,12.6-28,28-28s28,12.6,28,28c0,10.3-5.6,19.4-14,24.2V31c0-1.1-0.9-2-2-2S74,29.9,74,31z M80.6,71.7L77.8,73l-1.3-2.6
	c1-0.4,1.9-0.9,2.8-1.3L80.6,71.7z M101,108l-8,3.8c-0.9,0.5-2,0-2.5-1L76.2,80.6c-0.5-1-0.1-2.3,0.8-2.8l7.6-3.6
	c0.2-0.1,0.5-0.2,0.7-0.2c0.7,0,1.3,0.4,1.7,1.1l14.7,30.2C102.3,106.4,101.9,107.6,101,108z"/>
</svg>
