<svg xmlns="http://www.w3.org/2000/svg" data-name="Layer 1" viewBox="0 0 128 160" x="0px" y="0px"><title>Miscellaneous 22 final</title><path d="M124,6H4a4,4,0,0,0-4,4v92a4,4,0,0,0,4,4H56v11H46a2,2,0,0,0,0,4H82a2,2,0,0,0,0-4H72V106h52a4,4,0,0,0,4-4V10A4,4,0,0,0,124,6ZM4,10H124V92H4ZM68,117H60V106h8Zm2-15H4V96H124v6Z"/><path d="M64,59a6,6,0,0,1-6-6,2,2,0,0,0-4,0A10,10,0,1,0,64,43a2,2,0,0,0,0,4,6,6,0,0,1,0,12Z"/><path d="M82,53A18,18,0,1,0,64,71a2,2,0,0,0,0-4A14,14,0,1,1,78,53a2,2,0,0,0,4,0Z"/><path d="M109.89,67.08,97.28,70.72a2,2,0,0,0-.83,3.36l9.46,9.1a2,2,0,0,0,3.33-1l3.15-12.75a2,2,0,0,0-2.5-2.4ZM106.18,77.9l-4.47-4.3,6-1.72Z"/><path d="M112,15.82a2,2,0,0,0-3.43.49L103.65,28.5a2,2,0,0,0,1.86,2.74l.29,0,13-1.87a2,2,0,0,0,1.29-3.22Zm-3.31,11L111,21l3.83,4.88Z"/><path d="M24.17,52.25a2,2,0,0,0-.44-2l-8.89-9.66a2,2,0,0,0-3.38.76L7.54,53.92a2,2,0,0,0,1.91,2.6,2,2,0,0,0,.44,0L22.7,53.6A2,2,0,0,0,24.17,52.25Zm-11.78-.44,1.85-5.92,4.2,4.57Z"/><path d="M25.51,67.48a2,2,0,0,0-3.38.76L19.26,77.4A2,2,0,0,0,21.17,80a2,2,0,0,0,.44,0L31,77.86a2,2,0,0,0,1-3.31Zm-1.4,7.81.8-2.55,1.81,2Z"/><path d="M31,29a6,6,0,1,0-6-6A6,6,0,0,0,31,29Zm0-8a2,2,0,1,1-2,2A2,2,0,0,1,31,21Z"/><path d="M114,47a6,6,0,1,0,6,6A6,6,0,0,0,114,47Zm0,8a2,2,0,1,1,2-2A2,2,0,0,1,114,55Z"/><path d="M64,23a29.82,29.82,0,0,1,17,5.3A6,6,0,0,1,82.56,26a6,6,0,0,1,1-.75A34,34,0,0,0,36.22,72.56,6,6,0,0,1,39.3,70,30,30,0,0,1,64,23Z"/><path d="M91.78,33.44A6,6,0,0,1,88.7,36,30,30,0,0,1,47,77.7,6,6,0,0,1,45.44,80a6,6,0,0,1-1,.75A34,34,0,0,0,91.78,33.44Z"/><path d="M86.83,65.44A26,26,0,0,0,51.57,30.17a6,6,0,0,1,2.24,3.34A22,22,0,0,1,83.49,63.19,6,6,0,0,1,86.83,65.44Z"/><path d="M42.79,38A26,26,0,0,0,79,74.21a6,6,0,0,1-2.61-3A22,22,0,0,1,45.84,40.6,6,6,0,0,1,42.79,38Z"/><circle cx="86.63" cy="30.37" r="2" transform="translate(2.4 66.88) rotate(-42.76)"/><circle cx="41.37" cy="75.63" r="2" transform="translate(-40.35 48.19) rotate(-42.76)"/><circle cx="82" cy="69" r="2" transform="matrix(0.04, -1, 1, 0.04, 9.85, 148.24)"/><circle cx="48" cy="35" r="2" transform="matrix(0.04, -1, 1, 0.04, 11.15, 81.6)"/><text x="0" y="143" fill="#000000" font-size="5px" font-weight="bold" font-family="'Helvetica Neue', Helvetica, Arial-Unicode, Arial, Sans-serif">Created by priyanka</text><text x="0" y="148" fill="#000000" font-size="5px" font-weight="bold" font-family="'Helvetica Neue', Helvetica, Arial-Unicode, Arial, Sans-serif">from the Noun Project</text></svg>