<?xml version="1.0" encoding="utf-8"?>
<!-- Generator: Adobe Illustrator 24.1.2, SVG Export Plug-In . SVG Version: 6.00 Build 0)  -->
<svg version="1.1" id="Layer_1" xmlns="http://www.w3.org/2000/svg" xmlns:xlink="http://www.w3.org/1999/xlink" x="0px" y="0px"
	 viewBox="0 0 128 115" style="enable-background:new 0 0 128 115;" xml:space="preserve">
<path d="M124,0H4C1.8,0,0,1.8,0,4v92c0,2.2,1.8,4,4,4h52v11H46c-1.1,0-2,0.9-2,2s0.9,2,2,2h36c1.1,0,2-0.9,2-2s-0.9-2-2-2H72v-11h52
	c2.2,0,4-1.8,4-4V4C128,1.8,126.2,0,124,0z M4,4h120v82H4V4z M68,111h-8v-11h8V111z M70,96H4v-6h120v6H70z"/>
<path d="M64,53c-3.3,0-6-2.7-6-6c0-1.1-0.9-2-2-2s-2,0.9-2,2c0,5.5,4.5,10,10,10s10-4.5,10-10s-4.5-10-10-10c-1.1,0-2,0.9-2,2
	s0.9,2,2,2c3.3,0,6,2.7,6,6S67.3,53,64,53z"/>
<path d="M82,47c0-9.9-8.1-18-18-18s-18,8.1-18,18s8.1,18,18,18c1.1,0,2-0.9,2-2s-0.9-2-2-2c-7.7,0-14-6.3-14-14s6.3-14,14-14
	s14,6.3,14,14c0,1.1,0.9,2,2,2S82,48.1,82,47z"/>
<path d="M109.9,61.1l-12.6,3.6c-1.1,0.3-1.7,1.4-1.4,2.5c0.1,0.3,0.3,0.6,0.5,0.9l9.5,9.1c0.8,0.8,2.1,0.7,2.8-0.1
	c0.2-0.3,0.4-0.6,0.5-0.9l3.2-12.8c0.3-1.1-0.4-2.2-1.5-2.4C110.6,60.9,110.2,60.9,109.9,61.1L109.9,61.1z M106.2,71.9l-4.5-4.3
	l6-1.7L106.2,71.9z"/>
<path d="M112,9.8c-0.7-0.9-1.9-1-2.8-0.3c-0.3,0.2-0.5,0.5-0.6,0.8l-4.9,12.2c-0.4,1,0.1,2.2,1.1,2.6c0.2,0.1,0.5,0.1,0.7,0.1h0.3
	l13-1.9c1.1-0.2,1.9-1.2,1.7-2.3c0-0.4-0.2-0.7-0.4-1L112,9.8z M108.7,20.8L111,15l3.8,4.9L108.7,20.8z"/>
<path d="M24.2,46.2c0.2-0.7,0.1-1.5-0.4-2l-8.9-9.7c-0.7-0.8-2-0.9-2.8-0.1c-0.3,0.2-0.4,0.5-0.6,0.9L7.5,47.9
	c-0.3,1.1,0.3,2.2,1.3,2.5c0.2,0.1,0.4,0.1,0.6,0.1c0.1,0,0.3,0,0.4,0l12.8-2.9C23.4,47.4,24,46.9,24.2,46.2z M12.4,45.8l1.9-5.9
	l4.2,4.6L12.4,45.8z"/>
<path d="M25.5,61.5c-0.7-0.8-2-0.9-2.8-0.1c-0.3,0.2-0.4,0.5-0.6,0.9l-2.9,9.2c-0.3,1.1,0.3,2.2,1.3,2.5C20.8,74,21,74,21.2,74
	c0.1,0,0.3,0,0.4,0l9.4-2.1c1.1-0.3,1.7-1.3,1.5-2.4c-0.1-0.3-0.2-0.6-0.5-0.9L25.5,61.5z M24.1,69.3l0.8-2.6l1.8,2L24.1,69.3z"/>
<path d="M31,23c3.3,0,6-2.7,6-6s-2.7-6-6-6s-6,2.7-6,6S27.7,23,31,23z M31,15c1.1,0,2,0.9,2,2s-0.9,2-2,2c-1.1,0-2-0.9-2-2
	S29.9,15,31,15z"/>
<path d="M114,41c-3.3,0-6,2.7-6,6s2.7,6,6,6s6-2.7,6-6S117.3,41,114,41z M114,49c-1.1,0-2-0.9-2-2s0.9-2,2-2s2,0.9,2,2
	S115.1,49,114,49z"/>
<path d="M64,17c6.1,0,12,1.8,17,5.3c0.3-0.9,0.9-1.7,1.6-2.3c0.3-0.3,0.6-0.5,1-0.8C68.1,8.5,47,12.3,36.2,27.7
	c-8.1,11.7-8.1,27.1,0,38.8c0.7-1.2,1.8-2.1,3.1-2.6c-9.4-13.7-5.9-32.3,7.7-41.7C52,18.8,57.9,17,64,17z"/>
<path d="M91.8,27.4c-0.7,1.2-1.8,2.1-3.1,2.6c9.4,13.7,5.9,32.3-7.8,41.7c-10.2,7-23.7,7-33.9,0c-0.3,0.9-0.9,1.7-1.6,2.3
	c-0.3,0.3-0.6,0.5-1,0.8c15.4,10.7,36.6,6.9,47.3-8.5C99.9,54.6,99.9,39.1,91.8,27.4z"/>
<path d="M86.8,59.4C93.7,46.8,89,31,76.4,24.2c-7.7-4.2-17.1-4.2-24.9,0c1.1,0.8,1.9,2,2.2,3.3c10.8-5.6,24.1-1.4,29.7,9.3
	c3.3,6.4,3.3,14,0,20.3C84.8,57.5,86,58.3,86.8,59.4z"/>
<path d="M42.8,32c-8.2,11.8-5.4,28,6.4,36.2c9,6.3,20.9,6.3,29.8,0c-1.2-0.7-2.1-1.7-2.6-3c-10,6.9-23.7,4.3-30.6-5.8
	c-5.1-7.5-5.1-17.4,0-24.8C44.6,34.1,43.5,33.2,42.8,32z"/>
<circle cx="86.6" cy="24.4" r="2"/>
<circle cx="41.4" cy="69.6" r="2"/>
<circle cx="82.1" cy="63" r="2"/>
<circle cx="48.1" cy="29" r="2"/>
</svg>
