<?xml version="1.0" encoding="utf-8"?>
<!-- Generator: Adobe Illustrator 24.1.2, SVG Export Plug-In . SVG Version: 6.00 Build 0)  -->
<svg version="1.1" id="Layer_1" xmlns="http://www.w3.org/2000/svg" xmlns:xlink="http://www.w3.org/1999/xlink" x="0px" y="0px"
	 viewBox="0 0 113.6 88.1" style="enable-background:new 0 0 113.6 88.1;" xml:space="preserve">
<g>
	<path d="M85.1,36.4v15.2h28.5V36.4h-12.8V25.8H58.3v-9.1c0-0.1,0-0.2,0-0.3h21.8V0H33.6v16.4h21.8c0,0.1,0,0.2,0,0.3v9.1H12.8v10.6
		l0,0H0v15.2h12.8l0,0v21.3H0V88h28.5V72.9H15.8V62.8h39.5v10.1H42.5V88H71v-6h14v6.1h28.5V72.9H85.1V79h-14v-6.1H58.3V59.8H15.8
		v-8.2l0,0h12.8V36.4H15.8l0,0v-7.6h39.5v7.6H42.5v15.2H71V36.4H58.3v-7.6h39.5v7.6H85.1z M36.6,3H77v10.4H36.6V3z M25.5,85H3v-9.1
		h22.5V85z M88.1,75.9h22.5V85H88.1V75.9z M68.1,85H45.5v-9.1H68V85H68.1z M25.5,48.6H3v-9.2h22.5V48.6z M68.1,48.6H45.5v-9.2H68
		v9.2H68.1z M110.6,48.6H88.1v-9.2h22.5V48.6z"/>
</g>
</svg>
