<svg xmlns="http://www.w3.org/2000/svg" xmlns:xlink="http://www.w3.org/1999/xlink" version="1.0" x="0px" y="0px" viewBox="0 0 128 160" style="enable-background:new 0 0 128 128;" xml:space="preserve"><g><path d="M92.3,56.4v15.2h28.5V56.4H108V45.8H65.5v-9.1c0-0.1,0-0.2,0-0.3h21.8V20H40.8v16.4h21.8c0,0.1,0,0.2,0,0.3v9.1H20v10.6   c0,0,0,0,0,0H7.2v15.2H20c0,0,0,0,0,0v21.3H7.2V108h28.5V92.9H23V82.8h39.5v10.1H49.7V108h28.5V102h14v6.1h28.5V92.9H92.3V99h-14   v-6.1H65.5V79.8H23v-8.2c0,0,0,0,0,0h12.8V56.4H23c0,0,0,0,0,0v-7.6h39.5v7.6H49.7v15.2h28.5V56.4H65.5v-7.6H105v7.6H92.3z    M43.8,23h40.4v10.4H43.8V23z M32.7,105H10.2v-9.1h22.5V105z M95.3,95.9h22.5v9.1H95.3V95.9z M75.3,105H52.7v-9.1h22.5V105z    M32.7,68.6H10.2v-9.2h22.5V68.6z M75.3,68.6H52.7v-9.2h22.5V68.6z M117.8,68.6H95.3v-9.2h22.5V68.6z"/></g><text x="0" y="143" fill="#000000" font-size="5px" font-weight="bold" font-family="'Helvetica Neue', Helvetica, Arial-Unicode, Arial, Sans-serif">Created by SBTS</text><text x="0" y="148" fill="#000000" font-size="5px" font-weight="bold" font-family="'Helvetica Neue', Helvetica, Arial-Unicode, Arial, Sans-serif">from the Noun Project</text></svg>