<svg xmlns="http://www.w3.org/2000/svg" xmlns:xlink="http://www.w3.org/1999/xlink" version="1.0" x="0px" y="0px" viewBox="0 0 100 125" enable-background="new 0 0 100 100" xml:space="preserve"><g><g><circle cx="58.4657898" cy="51.2883301" r="1.6885681"/><path d="M41.855957,48.6767578c0.4833984,0.2714844,1.0913086,0.0996094,1.3613281-0.3837891    c0.2700195-0.4814453,0.0981445-1.0908203-0.3837891-1.3603516c-9.046875-5.0693359-14.4360352,0.5136719-14.4892578,0.5712891    c-0.3774414,0.4033203-0.3564453,1.0361328,0.0463867,1.4140625c0.1928711,0.1796875,0.4384766,0.2695312,0.6835938,0.2695312    c0.2666016,0,0.5332031-0.1064453,0.7299805-0.3164062C29.8466797,48.8251953,34.1611328,44.3671875,41.855957,48.6767578z"/><circle cx="36.2008667" cy="51.288269" r="1.6885376"/><path d="M51.8818359,46.9072266c-4.7216797,2.3134766-5.0327148,6.9707031-5.3071289,11.0800781    c-0.034668,0.5214844-0.0693359,1.0410156-0.112793,1.5537109c-0.0800781,0.9501953-0.1147461,1.9208984-0.1489258,2.8603516    c-0.0327148,0.9160156-0.0668945,1.8623047-0.1430664,2.7646484c-0.0268555,0.3222656,0.1030273,0.6376953,0.3496094,0.8466797    C46.7021484,66.1679688,46.9321289,66.25,47.1665039,66.25c0.0820312,0,0.1640625-0.0097656,0.2451172-0.0302734l6.9169922-1.75    c0.5356445-0.1357422,0.8598633-0.6796875,0.7241211-1.2148438c-0.1352539-0.5351562-0.6796875-0.8564453-1.2143555-0.7246094    l-5.5859375,1.4130859c0.0244141-0.4931641,0.0419922-0.9863281,0.0595703-1.4697266    c0.0327148-0.9160156,0.0668945-1.8623047,0.1430664-2.7646484c0.0439453-0.5244141,0.0795898-1.0556641,0.1152344-1.5888672    c0.2612305-3.9140625,0.5083008-7.6123047,4.1914062-9.4169922c7.9018555-3.8730469,11.9516602,0.0205078,12.1157227,0.1835938    c0.3857422,0.3945312,1.0195312,0.4013672,1.4140625,0.015625c0.3950195-0.3857422,0.4018555-1.0195312,0.015625-1.4140625    C66.1005859,47.2773438,61.1420898,42.3691406,51.8818359,46.9072266z"/><path d="M59.2905273,70.3769531c-8.1303711,2.4921875-13.9399414,2.40625-20.0532227-0.2919922    c-0.5053711-0.2216797-1.0947266,0.0068359-1.3188477,0.5107422c-0.2226562,0.5058594,0.0058594,1.0957031,0.5112305,1.3193359    c3.7231445,1.6435547,7.2524414,2.2509766,10.5600586,2.2509766c3.9638672,0,7.609375-0.8720703,10.8867188-1.8769531    c0.5283203-0.1621094,0.8251953-0.7207031,0.6630859-1.2490234    C60.3779297,70.5117188,59.8188477,70.2138672,59.2905273,70.3769531z"/><path d="M78.3896484,48c-0.3671875-1.0585938-1.0019531-1.8115234-1.8364258-2.1757812    c-1.1744995-0.5144043-2.3264771-0.2355957-3.2350464,0.2167969c0.2211304-1.3222656,0.2496338-2.2080078,0.0458374-2.8015137    c0.0562744-0.5222168,0.1031494-1.0056152,0.1335449-1.4162598c0.059082-0.8134766,0.2407227-1.9697266,0.4506836-3.3095703    c0.8208008-5.2363281,2.0610352-13.1503906-1.3408203-16.9863281c-1.2338867-1.390625-2.9492188-2.1240234-5.1064453-2.1826172    c-0.1572266-0.4189453-0.3642578-1.0039062-0.4970703-1.3789062c-0.3208008-0.9052734-0.4106445-1.1513672-0.4863281-1.2939453    c-3.5200195-6.6708984-13.9101562-6.2861328-17.324707-6.1552734c-5.0419922,0.1875-12.4169922,0.8583984-18.2250977,4.5117188    c-8.1069336,5.0996094-8.456543,13.1015625-8.4672852,13.5039062l0.3759766,11.7763672    c0,0,0.0810547,1.3857422,0.2070312,3.3847656c0.0493164,0.7845459,0.1077881,1.6965332,0.1720581,2.6704102    c-0.9630127-0.6130371-2.3706055-1.1696777-3.8087769-0.5395508C18.6123047,46.1884766,17.9775391,46.9414062,17.6103516,48    c-0.8310547,2.3974609-0.1738281,5.9853516,1.7578125,9.5966797c0.3725586,0.6962891,0.6870117,1.5839844,1.0205078,2.5244141    c0.9728394,2.744873,2.1762695,6.1140137,5.6781006,6.2694092c1.1733398,3.9886475,2.7688599,7.9730225,4.8067627,11.9171143    c3.4711914,6.7177734,10.0742188,10.6582031,17.5986328,10.6582031c0.7963867,0,1.6035156-0.0439453,2.4179688-0.1337891    c7.3974609-0.8144531,13.3603516-6.5898438,17.2451172-16.703125c0.72052-1.8762207,1.2216187-3.7995605,1.6185303-5.7277832    c3.6433105-0.0446777,4.8679199-3.487793,5.8575439-6.2800293c0.3334961-0.9404297,0.6479492-1.828125,1.0205078-2.5244141    C78.5634766,53.9853516,79.2207031,50.3974609,78.3896484,48z M71.5671997,44.0222168l-0.0003052,0.0002441    c-0.0009766-0.0012207-0.0010376-0.0019531-0.0020142-0.0031738L71.5671997,44.0222168z M22.2739258,59.4521484    c-0.359375-1.0126953-0.6987305-1.9697266-1.1420898-2.7988281c-1.9702148-3.6835938-2.1347656-6.546875-1.6318359-7.9980469    c0.1772461-0.5107422,0.4428711-0.8652344,0.7485352-0.9990234c1.2075195-0.5263672,2.7661133,1.0507812,2.793457,1.0791016    c0.1116943,0.1176758,0.2476807,0.1914062,0.3909302,0.2423096c0.0532837,0.7617188,0.1085815,1.5285645,0.1647949,2.2814941    c-0.4022217-0.2618408-0.8717651-0.4919434-1.4180298-0.6409912c-0.5336914-0.1464844-1.0820312,0.1689453-1.2280273,0.7021484    c-0.1450195,0.5322266,0.1689453,1.0820312,0.7016602,1.2275391c1.34375,0.3662109,1.9946289,1.5751953,2.0136719,1.6113281    c0.0479126,0.0947266,0.1107788,0.1761475,0.1815796,0.2480469c0.0985718,1.140625,0.1952515,2.1311035,0.2842407,2.8427734    c0.2911377,2.3295898,0.7503052,4.6669922,1.3462524,7.0053711    C23.9558716,63.7868652,23.1972046,62.0579834,22.2739258,59.4521484z M66.2680664,71.4121094    C63.7587891,77.9453125,59.015625,85.9257812,50.6713867,86.84375c-7.784668,0.8544922-14.519043-2.6777344-18.0209961-9.4541016    c-3.487793-6.75-5.6860352-13.609375-6.5332031-20.3876953c-0.3271484-2.6191406-0.765625-9.1308594-1.0131836-13.0429688    l3.2944336-4.0488281c0.1455078-0.1777344,0.2246094-0.4013672,0.2246094-0.6308594    c0-0.0322266,0.0043945-3.2392578,0.3305664-6.5058594c0.3730469-3.7304688,5.425293-5.6884766,8.7514648-5.4111328    c1.3232422,0.1142578,2.6845703,0.3388672,4.0004883,0.5556641c2.0913086,0.3447266,4.2529297,0.6992188,6.4013672,0.6523438    h0.3818359c2.184082,0.0556641,4.3334961-0.3076172,6.4238281-0.6523438    c1.3164062-0.2177734,2.6777344-0.4414062,4.0014648-0.5556641c3.3183594-0.2919922,8.3774414,1.6796875,8.7504883,5.4111328    c0.3266602,3.2666016,0.3310547,6.4736328,0.3310547,6.5058594c0,0.2304688,0.0791016,0.453125,0.2246094,0.6308594    l3.272644,4.020752c0.1611328,0.7633057-0.5471191,3.8239746-0.8180542,4.9919434    c-0.1503906,0.6494141-0.2695312,1.1708984-0.3105469,1.4394531c-0.4077148,2.6523438-0.84375,5.2998047-1.2817383,7.9462891    c-0.1362305,0.8261719-0.2641602,1.6523438-0.3916016,2.4775391C68.1171875,64.5,67.5756836,68.0078125,66.2680664,71.4121094z     M74.8681641,56.6533203c-0.4433594,0.8291016-0.7827148,1.7861328-1.1420898,2.7988281    c-0.9989624,2.8193359-1.7947998,4.6381836-3.5878296,4.9091797c0.1906128-1.095459,0.3621826-2.1881104,0.5292358-3.2695312    c0.1264648-0.8183594,0.2529297-1.6376953,0.3886719-2.4570312c0.2182617-1.3195801,0.4246216-2.6413574,0.6386719-3.9619141    c0.269043-0.0708008,0.5075073-0.2507324,0.6411133-0.5195312c0.0063477-0.0117188,0.6474609-1.2333984,2.0107422-1.6054688    c0.5327148-0.1455078,0.8466797-0.6953125,0.7016602-1.2275391c-0.1459961-0.5332031-0.6962891-0.8515625-1.2280273-0.7021484    c-0.6326904,0.1726074-1.1554565,0.4553223-1.5958252,0.7694092c0.0374756-0.2407227,0.0793457-0.480835,0.116333-0.7215576    c0.0371094-0.2412109,0.1474609-0.7080078,0.2827148-1.2910156c0.0397949-0.1717529,0.0712891-0.3171387,0.1086426-0.480957    c0.0795898-0.0466309,0.1611938-0.09021,0.2277832-0.1606445c0.0151367-0.015625,1.5922852-1.5976562,2.7915039-1.0771484    c0.3056641,0.1337891,0.5712891,0.4882812,0.7485352,0.9990234    C77.0029297,50.1064453,76.8383789,52.9697266,74.8681641,56.6533203z"/></g></g><text x="0" y="115" fill="#000000" font-size="5px" font-weight="bold" font-family="'Helvetica Neue', Helvetica, Arial-Unicode, Arial, Sans-serif">Created by Yu luck</text><text x="0" y="120" fill="#000000" font-size="5px" font-weight="bold" font-family="'Helvetica Neue', Helvetica, Arial-Unicode, Arial, Sans-serif">from the Noun Project</text></svg>