<svg xmlns="http://www.w3.org/2000/svg" viewBox="0 0 64 80" x="0px" y="0px"><title>Prototype-design-wireframe-design-ui</title><g><path d="M61,9H37a1,1,0,0,0-1,1V29h0a3.21,3.21,0,0,0-3.15,2.5,1,1,0,0,0-.06.35v4.37a1.06,1.06,0,0,1-1,1.12H29V10a1,1,0,0,0-1-1H4a1,1,0,0,0-1,1V54a1,1,0,0,0,1,1H28a1,1,0,0,0,1-1V39.3h2.75a3.06,3.06,0,0,0,3-3.12v-4.1A1.17,1.17,0,0,1,36,31h0V54a1,1,0,0,0,1,1H61a1,1,0,0,0,1-1V10A1,1,0,0,0,61,9ZM27,23H7.7L27,11.74ZM24.3,11,5,22.26V11ZM9,53V52H23v1Zm18,0H25V51a1,1,0,0,0-1-1H8a1,1,0,0,0-1,1v2H5V25H27V37.3H25V31a1,1,0,0,0-1-1H8a1,1,0,0,0-1,1V47a1,1,0,0,0,1,1H24a1,1,0,0,0,1-1V39.3h2ZM20.77,37.3a3.48,3.48,0,1,0,.13,2H23V46H9V32H23v5.3ZM19,38.5A1.5,1.5,0,1,1,17.5,37,1.5,1.5,0,0,1,19,38.5Zm20.52-5a1,1,0,0,0,1.41,0l2.77-2.77.06-.06h0a.94.94,0,0,0,.23-.52,1.21,1.21,0,0,0,0-.19h0a1.06,1.06,0,0,0-.28-.64h0l-2.78-2.78a1,1,0,0,0-1.41,0,1,1,0,0,0,0,1.41L40.59,29H38V11H60V37H38V31h2.59L39.52,32A1,1,0,0,0,39.52,33.45ZM38,39H57.7L38,52.13Zm2.3,14L60,39.87V53Z"/><rect x="7" y="27" width="6" height="2"/><rect x="40" y="13" width="9" height="2"/><rect x="40" y="17" width="18" height="2"/><rect x="40" y="21" width="13" height="2"/><rect x="45" y="25" width="13" height="2"/><rect x="45" y="29" width="13" height="2"/><rect x="45" y="33" width="10" height="2"/></g><text x="0" y="79" fill="#000000" font-size="5px" font-weight="bold" font-family="'Helvetica Neue', Helvetica, Arial-Unicode, Arial, Sans-serif">Created by DailyPM</text><text x="0" y="84" fill="#000000" font-size="5px" font-weight="bold" font-family="'Helvetica Neue', Helvetica, Arial-Unicode, Arial, Sans-serif">from the Noun Project</text></svg>