<svg xmlns="http://www.w3.org/2000/svg" xmlns:xlink="http://www.w3.org/1999/xlink" version="1.1" x="0px" y="0px" viewBox="0 0 64 80" style="enable-background:new 0 0 64 64;" xml:space="preserve"><g><path d="M36,25c-6.065,0-11,4.935-11,11s4.935,11,11,11s11-4.935,11-11S42.065,25,36,25z M36,27c4.624,0,8.441,3.507,8.941,8H35.38   l-5.871-5.218C31.149,28.071,33.45,27,36,27z M27,36c0-1.692,0.478-3.27,1.293-4.623L31,33.783v9.695C28.59,41.861,27,39.113,27,36   z M33,44.475V35.56L34.62,37H37v7.941C36.671,44.978,36.338,45,36,45C34.947,45,33.94,44.809,33,44.475z M39,44.475V37h5.941   C44.555,40.47,42.188,43.343,39,44.475z"/><path d="M63,9V6c0-2.757-2.243-5-5-5H6C3.243,1,1,3.243,1,6v3h2v38H1v3c0,2.757,2.243,5,5,5h42.761l5.628,6.343   C55.323,62.396,56.666,63,58.074,63C60.79,63,63,60.79,63,58.074c0-1.408-0.604-2.751-1.657-3.685l-0.403-0.358   C62.2,53.111,63,51.635,63,50v-3h-2V9H63z M3,6c0-1.654,1.346-3,3-3h52c1.654,0,3,1.346,3,3v1H3V6z M6,53c-1.654,0-3-1.346-3-3v-1   h25.549c2.198,1.265,4.738,2,7.451,2c2.709,0,5.246-0.733,7.442-1.995L46.986,53H6z M36,49c-7.168,0-13-5.832-13-13   c0-7.047,5.953-13,13-13c7.168,0,13,5.832,13,13S43.168,49,36,49z M33,21.317c-4.368,0.928-8.103,3.828-10.199,7.683H9V13h24   V21.317z M25.837,47H17V35h4.052C21.029,35.332,21,35.663,21,36C21,40.348,22.871,44.258,25.837,47z M15,47h-4v-6.586l4-4V47z    M58.074,61c-0.836,0-1.634-0.359-2.189-0.984L45.119,47.882c1.037-0.798,1.965-1.726,2.763-2.763l12.134,10.766   C60.641,56.439,61,57.237,61,58.074C61,59.688,59.688,61,58.074,61z M61,50c0,1.136-0.641,2.144-1.614,2.652L55.27,49H61V50z    M59,47h-5.985l-4.01-3.558C50.267,41.246,51,38.709,51,36c0-8.271-6.729-15-15-15c-0.337,0-0.668,0.029-1,0.052V11H7v20h14.911   c-0.239,0.651-0.448,1.314-0.594,2h-5.731L9,39.586V47H5V9h54V47z"/><rect x="43" y="11" width="14" height="2"/><rect x="43" y="15" width="14" height="2"/><rect x="55" y="19" width="2" height="2"/><rect x="51" y="19" width="2" height="2"/><rect x="47" y="19" width="2" height="2"/><rect x="50.536" y="50.536" transform="matrix(0.7071 -0.7071 0.7071 0.7071 -21.3468 51.5356)" width="2" height="2"/><rect x="47.707" y="47.707" transform="matrix(0.7071 -0.7071 0.7071 0.7071 -20.1751 48.707)" width="2" height="2"/><rect x="53.328" y="53.379" transform="matrix(0.7071 -0.7071 0.7071 0.7071 -22.5035 54.3284)" width="2" height="1.9"/></g><text x="0" y="79" fill="#000000" font-size="5px" font-weight="bold" font-family="'Helvetica Neue', Helvetica, Arial-Unicode, Arial, Sans-serif">Created by Eucalyp</text><text x="0" y="84" fill="#000000" font-size="5px" font-weight="bold" font-family="'Helvetica Neue', Helvetica, Arial-Unicode, Arial, Sans-serif">from the Noun Project</text></svg>