<?xml version="1.0" encoding="utf-8"?>
<!-- Generator: Adobe Illustrator 24.1.2, SVG Export Plug-In . SVG Version: 6.00 Build 0)  -->
<svg version="1.1" id="Layer_1" xmlns="http://www.w3.org/2000/svg" xmlns:xlink="http://www.w3.org/1999/xlink" x="0px" y="0px"
	 viewBox="0 0 62 62" style="enable-background:new 0 0 62 62;" xml:space="preserve">
<g>
	<path d="M35,24c-6.1,0-11,4.9-11,11s4.9,11,11,11s11-4.9,11-11S41.1,24,35,24z M35,26c4.6,0,8.4,3.5,8.9,8h-9.6l-5.9-5.2
		C30.1,27.1,32.5,26,35,26z M26,35c0-1.7,0.5-3.3,1.3-4.6l2.7,2.4v9.7C27.6,40.9,26,38.1,26,35z M32,43.5v-8.9l1.6,1.4H36v7.9
		c-0.3,0-0.7,0.1-1,0.1C33.9,44,32.9,43.8,32,43.5z M38,43.5V36h5.9C43.6,39.5,41.2,42.3,38,43.5z"/>
	<path d="M62,8V5c0-2.8-2.2-5-5-5H5C2.2,0,0,2.2,0,5v3h2v38H0v3c0,2.8,2.2,5,5,5h42.8l5.6,6.3c0.9,1.1,2.3,1.7,3.7,1.7
		c2.7,0,4.9-2.2,4.9-4.9c0-1.4-0.6-2.8-1.7-3.7L59.9,53c1.3-0.9,2.1-2.4,2.1-4v-3h-2V8H62z M2,5c0-1.7,1.3-3,3-3h52c1.7,0,3,1.3,3,3
		v1H2V5z M5,52c-1.7,0-3-1.3-3-3v-1h25.5c2.2,1.3,4.7,2,7.5,2c2.7,0,5.2-0.7,7.4-2l3.5,4H5z M35,48c-7.2,0-13-5.8-13-13
		c0-7,6-13,13-13c7.2,0,13,5.8,13,13S42.2,48,35,48z M32,20.3c-4.4,0.9-8.1,3.8-10.2,7.7H8V12h24V20.3z M24.8,46H16V34h4.1
		c0,0.3-0.1,0.7-0.1,1C20,39.3,21.9,43.3,24.8,46z M14,46h-4v-6.6l4-4V46z M57.1,60c-0.8,0-1.6-0.4-2.2-1L44.1,46.9
		c1-0.8,2-1.7,2.8-2.8L59,54.9c0.6,0.6,1,1.4,1,2.2C60,58.7,58.7,60,57.1,60z M60,49c0,1.1-0.6,2.1-1.6,2.7L54.3,48H60V49z M58,46
		h-6l-4-3.6c1.3-2.2,2-4.7,2-7.4c0-8.3-6.7-15-15-15c-0.3,0-0.7,0-1,0.1V10H6v20h14.9c-0.2,0.7-0.4,1.3-0.6,2h-5.7L8,38.6V46H4V8h54
		V46z"/>
	<rect x="42" y="10" width="14" height="2"/>
	<rect x="42" y="14" width="14" height="2"/>
	<rect x="54" y="18" width="2" height="2"/>
	<rect x="50" y="18" width="2" height="2"/>
	<rect x="46" y="18" width="2" height="2"/>
	<rect x="49.5" y="49.5" transform="matrix(0.7071 -0.7071 0.7071 0.7071 -20.9326 50.5355)" width="2" height="2"/>
	<rect x="46.7" y="46.7" transform="matrix(0.7071 -0.7071 0.7071 0.7071 -19.7611 47.7065)" width="2" height="2"/>
	<rect x="52.3" y="52.4" transform="matrix(0.7071 -0.7071 0.7071 0.7071 -22.09 53.3282)" width="2" height="1.9"/>
</g>
</svg>
