<?xml version="1.0" encoding="utf-8"?>
<!-- Generator: Adobe Illustrator 24.1.2, SVG Export Plug-In . SVG Version: 6.00 Build 0)  -->
<svg version="1.1" id="Layer_1" xmlns="http://www.w3.org/2000/svg" xmlns:xlink="http://www.w3.org/1999/xlink" x="0px" y="0px"
	 viewBox="0 0 44 48" style="enable-background:new 0 0 44 48;" xml:space="preserve">
<g>
	<path d="M12,34H6c-0.6,0-1,0.4-1,1v6c0,0.6,0.4,1,1,1h6c0.6,0,1-0.4,1-1v-6C13,34.5,12.6,34,12,34z M11,40H7v-4h4V40z"/>
	<path d="M12,23H6c-0.6,0-1,0.4-1,1v6c0,0.6,0.4,1,1,1h6c0.6,0,1-0.4,1-1v-6C13,23.5,12.6,23,12,23z M11,29H7v-4h4V29z"/>
	<path d="M17,19h13c0.6,0,1-0.4,1-1s-0.4-1-1-1H17c-0.6,0-1,0.4-1,1S16.4,19,17,19z"/>
	<path d="M17,15h13c0.6,0,1-0.4,1-1s-0.4-1-1-1H17c-0.6,0-1,0.4-1,1S16.4,15,17,15z"/>
	<path d="M25,28h-8c-0.6,0-1,0.4-1,1s0.4,1,1,1h8c0.6,0,1-0.4,1-1S25.6,28,25,28z"/>
	<path d="M17,26h8c0.6,0,1-0.4,1-1s-0.4-1-1-1h-8c-0.6,0-1,0.4-1,1S16.4,26,17,26z"/>
	<path d="M22,39h-5c-0.6,0-1,0.4-1,1s0.4,1,1,1h5c0.6,0,1-0.4,1-1S22.6,39,22,39z"/>
	<path d="M22,35h-5c-0.6,0-1,0.4-1,1s0.4,1,1,1h5c0.6,0,1-0.4,1-1S22.6,35,22,35z"/>
	<path d="M11.3,13.3L8,16.6l-1.3-1.3c-0.4-0.4-1-0.4-1.4,0c-0.4,0.4-0.4,1,0,1.4l0,0c3.3,3.3,2,3.4,7.4-2c0.4-0.4,0.4-1,0-1.4
		C12.3,12.9,11.7,12.9,11.3,13.3L11.3,13.3z"/>
	<path d="M42.2,13.2c-1.7-1-3.8-0.4-4.8,1.3L36,17c0-9.7,0.1-9.2-0.2-9.6c-6.6-7.7-6-7.1-6.3-7.3C28.9-0.1,29,0,1,0C0.4,0,0,0.5,0,1
		v46c0,0.6,0.4,1,1,1h34c0.6,0,1-0.4,1-1V31c2.9-5,4.8-8.2,7.5-13C44.5,16.4,44,14.2,42.2,13.2C42.3,13.2,42.3,13.2,42.2,13.2z
		 M30,3.7L32.8,7H30V3.7z M34,46H2V2h26v6c0,0.6,0.4,1,1,1h5v11.4L26.2,34c-0.2,0.3-0.1,0-0.5,6c0,0.6,0.4,1,0.9,1.1c0,0,0,0,0.1,0
		c0.4,0,0.2,0,5.2-3.2c0.3-0.2,0.1,0,2-3.3L34,46z M28,35.3c0.9,0.1,1.6,0.6,2.2,1.3l-2.4,1.5L28,35.3z M31.4,34.9
		c-0.7-0.7-1.6-1.3-2.6-1.5l8.1-14l2.6,1.5L31.4,34.9z M41.8,17l-1.2,2.2L38,17.6l1.2-2.2c0.5-0.6,1.5-0.7,2.1-0.2
		C41.9,15.7,42,16.4,41.8,17z"/>
</g>
</svg>
