<svg xmlns="http://www.w3.org/2000/svg" xmlns:xlink="http://www.w3.org/1999/xlink" version="1.1" x="0px" y="0px" viewBox="0 0 158.5 216.5" style="enable-background:new 0 0 158.5 173.2;" xml:space="preserve"><g><path d="M67.5,87.7c4-2.7,6.6-7.3,6.6-12.4c0-8.3-6.7-15-15-15c-8.3,0-15,6.7-15,15c0,5.2,2.6,9.7,6.6,12.4   c-4.3,1.2-7.4,5.2-7.4,9.8V111c0.9-0.2,1.9-0.4,2.9-0.6V97.5c0-3.6,2.7-6.6,6.1-7.2l2.3,9.3c0.1,0.5,0.5,0.9,0.9,1   c0.2,0.1,0.3,0.1,0.5,0.1c0.3,0,0.6-0.1,0.9-0.3l4-3v11c1-0.1,2-0.2,2.9-0.2V97.5l3.9,2.9c0.7-1.2,1.6-2.4,2.7-3.4l0.3-3.2   c0.4,0.7,0.7,1.4,0.9,2.2c0.8-0.6,1.7-1.2,2.6-1.6C73.4,91.2,70.8,88.6,67.5,87.7z M47.1,75.3c0-6.6,5.4-12,12-12   c6.6,0,12,5.4,12,12c0,6.6-5.4,12-12,12C52.5,87.3,47.1,81.9,47.1,75.3z M57,96.8l-1.6-6.5h1.4l3.6,4L57,96.8z M62.5,92.3l-1.8-2   h3.6L62.5,92.3z M67.7,96.6l-3-2.2l3-3.4c0.2,0.1,0.4,0.2,0.5,0.3L67.7,96.6z"/></g><g><path d="M113.5,86.4c4-2.7,6.6-7.3,6.6-12.4c0-8.3-6.7-15-15-15c-8.3,0-15,6.7-15,15c0,5.2,2.6,9.7,6.6,12.4   c-4.1,1.2-7.2,4.9-7.4,9.3c1.1,0.8,2.1,1.7,2.9,2.7v-2.2c0-3,1.9-5.6,4.5-6.7c1.5,3.2,4.7,5.3,8.3,5.3s6.8-2.1,8.3-5.3   c2.6,1.1,4.5,3.7,4.5,6.7v5.2h-5.2v-3.5c0-0.8-0.7-1.5-1.5-1.5c-0.8,0-1.5,0.7-1.5,1.5v12.2c1,0.2,2,0.4,2.9,0.6v-6.4h5.2v7.6   c1.1,0.3,2,0.6,2.9,0.9V96.2C120.9,91.5,117.8,87.6,113.5,86.4z M105.1,91.8c-2.2,0-4.1-1.1-5.3-2.9h10.5   C109.3,90.7,107.3,91.8,105.1,91.8z M105.2,86c-6.6,0-12-5.4-12-12c0-6.6,5.4-12,12-12c6.6,0,12,5.4,12,12   C117.2,80.6,111.8,86,105.2,86z"/></g><path d="M52.1,97.8c-0.8,0-1.5,0.7-1.5,1.5v10.4c1-0.1,1.9-0.3,2.9-0.4v-10C53.6,98.5,52.9,97.8,52.1,97.8z"/><path d="M57.2,71.6c-0.6,0-1.1,0.4-1.4,0.9c-0.2,0.6-0.1,1.3,0.4,1.7c0.5,0.4,1.2,0.5,1.7,0.1c0.6-0.4,0.8-1.2,0.6-1.8  C58.4,72,57.8,71.6,57.2,71.6z"/><path d="M58.6,72.5C58.6,72.6,58.6,72.4,58.6,72.5L58.6,72.5z"/><path d="M65.5,73.7C65.5,73.7,65.5,73.7,65.5,73.7c0.2,0.6,0.8,0.9,1.4,0.9c0.7,0,1.2-0.5,1.4-1.1c0.1-0.6-0.1-1.2-0.5-1.5  c-0.5-0.4-1.2-0.4-1.8,0C65.5,72.3,65.3,73,65.5,73.7C65.5,73.6,65.5,73.6,65.5,73.7z"/><path d="M95.7,129.8l-0.3-3.1c22.7-1.9,30-6.5,30-8.4c0-0.9-1.6-2.4-6-4c-0.9-0.3-1.8-0.6-2.8-0.9c-1.5-0.4-3.2-0.9-5.1-1.2  c-0.9-0.2-1.9-0.4-2.9-0.6c-4.2-0.7-8.8-1.3-13.9-1.7l0.3-3.1c5.1,0.4,9.9,1,14.2,1.8c1,0.2,2.1,0.4,3,0.6c1.9,0.4,3.7,0.8,5.3,1.3  c1.1,0.3,2.1,0.6,3,1c5.4,2,8,4.2,8,7c0,3-3.2,5.5-9.9,7.6C113,127.6,105,129,95.7,129.8z"/><path d="M65.7,130.3c-10.2-0.6-19.3-2-25.8-3.8c-7.6-2.1-11.2-4.8-11.2-8c0-3.7,5-6.7,15-8.9c1-0.2,2-0.4,3-0.6  c1.4-0.3,2.9-0.5,4.4-0.7c1-0.1,2-0.3,3-0.4c2.4-0.3,4.9-0.6,7.5-0.8c1-0.1,2-0.2,3-0.2c0.6,0,1.2-0.1,1.9-0.1l0.2,3.1  c-0.6,0-1.2,0.1-1.8,0.1c-1,0.1-2,0.1-2.9,0.2c-2.6,0.2-5.1,0.5-7.4,0.8c-1,0.1-2,0.3-2.9,0.4c-1.5,0.2-2.9,0.5-4.3,0.7  c-1,0.2-2,0.4-2.9,0.6c-9.9,2.2-12.6,4.8-12.6,5.9c0,2.7,10.9,7.3,34.1,8.7L65.7,130.3z"/><path d="M89.2,120.4c3.9-2.6,6.5-7,6.6-12c0-0.1,0-0.3,0-0.4c0-3.7-1.3-7-3.5-9.6c-0.9-1-1.8-1.9-2.9-2.7C87,94,84,93,80.8,93  c-2.3,0-4.5,0.5-6.4,1.4c-0.9,0.4-1.8,1-2.6,1.6c-0.4,0.3-0.8,0.6-1.2,1c-1.1,1-2,2.1-2.7,3.4c-1.3,2.2-2.1,4.8-2.1,7.6  c0,0,0,0.1,0,0.1c0,5.1,2.7,9.6,6.6,12.3c-3.8,1.1-6.7,4.3-7.3,8.3c-0.1,0.5-0.1,1-0.1,1.5v17.9c0,0.8,0.7,1.5,1.5,1.5h28.6  c0.8,0,1.5-0.7,1.5-1.5v-17.9c0-0.6-0.1-1.2-0.2-1.8C95.8,124.6,92.9,121.5,89.2,120.4z M68.8,108C68.8,108,68.8,108,68.8,108  c0-3.1,1.2-6,3.2-8.1c0.9-0.9,1.8-1.7,2.9-2.4c1.8-1,3.8-1.6,5.9-1.6c3.3,0,6.3,1.4,8.5,3.5c1.3,1.3,2.4,3,2.9,4.8  c0.4,1.2,0.6,2.4,0.6,3.7c0,0.1,0,0.1,0,0.2c-0.1,6.6-5.5,11.9-12,11.9C74.2,120,68.8,114.6,68.8,108z M86.1,123  c-1.1,1.8-2.8,2.3-5,2.3c-2.2,0-4.4-0.5-5.5-2.3H86.1z M93.7,130.2v5.2v2.9v8.2h-5.2h-2.9H68v-16.4c0-0.5,0-0.9,0.1-1.4  c0.5-2.4,2.1-4.4,4.4-5.3c1.5,3.2,4.7,4.1,8.3,4.1c3.6,0,6.8-0.9,8.3-4.1c2.2,0.9,3.8,2.8,4.3,5.1C93.6,129.2,93.7,129.7,93.7,130.2  z"/><path d="M67.3,101.7c-0.2-0.6-0.8-0.9-1.4-0.9c-0.6,0-1.2,0.5-1.4,1.1c-0.2,0.6,0.1,1.3,0.6,1.6c0.5,0.3,1.2,0.3,1.7-0.1  C67.4,103,67.6,102.3,67.3,101.7C67.3,101.6,67.3,101.7,67.3,101.7L67.3,101.7z M67.3,101.7"/><path d="M101.3,58c0.2,0.2,0.5,0.2,0.8,0.2c0.2,0,0.5-0.1,0.7-0.2c0.5-0.3,0.8-0.8,0.8-1.3v-3.4h1.5c2.5,0,4.6-2.1,4.6-4.6V33.3  c0-2.5-2.1-4.6-4.6-4.6H89.8v-0.6c0-2.5-2.1-4.6-4.6-4.6H58.2c-2.5,0-4.6,2.1-4.6,4.6v15.4c0,2.5,2.1,4.6,4.6,4.6h1.5v3.4  c0,0.5,0.3,1,0.8,1.3c0.2,0.1,0.5,0.2,0.7,0.2c0.3,0,0.6-0.1,0.8-0.2l7.3-4.7h4.2v0.6c0,2.5,2.1,4.6,4.6,4.6h16L101.3,58z   M68.9,45.2c-0.3,0-0.6,0.1-0.8,0.2l-5.4,3.5v-2.2c0-0.8-0.7-1.5-1.5-1.5h-3c-0.9,0-1.6-0.7-1.6-1.6V28.1c0-0.9,0.7-1.6,1.6-1.6  h27.1c0.9,0,1.6,0.7,1.6,1.6v0.6H78c-2,0-3.7,1.3-4.3,3.1H62.5c-0.8,0-1.5,0.7-1.5,1.5c0,0.8,0.7,1.5,1.5,1.5h11v2.5h-11  c-0.8,0-1.5,0.7-1.5,1.5c0,0.8,0.7,1.5,1.5,1.5h11v5H68.9z M76.4,48.7V33.3c0-0.9,0.7-1.6,1.6-1.6h27.1c0.9,0,1.6,0.7,1.6,1.6v15.4  c0,0.9-0.7,1.6-1.6,1.6h-3c-0.8,0-1.5,0.7-1.5,1.5v2.2l-5.4-3.5c-0.2-0.2-0.5-0.2-0.8-0.2H78C77.1,50.4,76.4,49.6,76.4,48.7  L76.4,48.7z M76.4,48.7"/><path d="M82.3,39.9h18.5c0.8,0,1.5-0.7,1.5-1.5c0-0.8-0.7-1.5-1.5-1.5H82.3c-0.8,0-1.5,0.7-1.5,1.5C80.8,39.3,81.5,39.9,82.3,39.9  L82.3,39.9z M82.3,39.9"/><path d="M102.3,43.9c0-0.8-0.7-1.5-1.5-1.5H82.3c-0.8,0-1.5,0.7-1.5,1.5c0,0.8,0.7,1.5,1.5,1.5h18.5  C101.6,45.4,102.3,44.7,102.3,43.9L102.3,43.9z M102.3,43.9"/><path d="M105.7,72.3c0.3,0.6,0.9,1,1.6,0.9c0.6-0.1,1.1-0.5,1.2-1.1c0.2-0.6-0.1-1.2-0.6-1.6c-0.6-0.4-1.4-0.3-1.9,0.2  C105.6,71.1,105.4,71.8,105.7,72.3C105.7,72.4,105.6,72.2,105.7,72.3L105.7,72.3z M105.7,72.3"/><path d="M98.8,71.5c0-0.2-0.1-0.4-0.2-0.5c-0.7-1.1-2.5-0.7-2.7,0.6c-0.2,1.2,1.1,2.1,2.2,1.5C98.7,72.7,99,72.1,98.8,71.5  C98.8,71.4,98.9,71.6,98.8,71.5L98.8,71.5z M98.8,71.5"/><path d="M105.4,76.8c-0.5-0.5-1.2-0.5-1.7,0c-0.4,0.4-0.9,0.6-1.5,0.6c-0.6,0-1.1-0.2-1.5-0.6c-0.5-0.5-1.2-0.5-1.7,0  c-0.5,0.5-0.5,1.2,0,1.7c0.9,0.9,2,1.3,3.1,1.3c1.1,0,2.3-0.4,3.1-1.3C105.9,78,105.9,77.3,105.4,76.8L105.4,76.8z M105.4,76.8"/><path d="M88.5,146.6"/><polygon points="104.1,123.4 104.6,121.5 95.2,119.2 93.1,119.5 94.8,121.1 "/><g><g><path d="M52.9,125.8l-5.6-10.1l17.2-1.4l7.6,9.6L52.9,125.8z M50.1,117.2l3.7,6.8l15-1.5l-5.1-6.4L50.1,117.2z"/></g><g><line x1="52.8" y1="118.1" x2="63.3" y2="117.3"/><rect x="52.7" y="117.3" transform="matrix(0.9972 -7.520270e-02 7.520270e-02 0.9972 -8.6897 4.6983)" width="10.6" height="0.9"/></g><g><line x1="54" y1="120.1" x2="64.6" y2="119.3"/><rect x="54" y="119.3" transform="matrix(0.9967 -8.155011e-02 8.155011e-02 0.9967 -9.5641 5.2351)" width="10.6" height="0.9"/></g><g><line x1="55.3" y1="122.4" x2="65.9" y2="121.5"/><rect x="55.3" y="121.5" transform="matrix(0.9967 -8.153027e-02 8.153027e-02 0.9967 -9.74 5.3465)" width="10.6" height="0.9"/></g></g><path d="M118.2,116.7l0.9-0.6l-0.5-0.7l-2,1.3h-3.1c-0.4-0.6-1.4-0.9-2.4-0.9c-1.2,0-2.5,0.4-2.5,1.3c0,0.9,1.2,1.3,2.3,1.3  c-0.2,0.2-0.3,0.4-0.3,0.6c0,0.9,1.3,1.3,2.5,1.3s2.5-0.4,2.5-1.3c0-0.2-0.1-0.4-0.2-0.6l1.4-0.9h3.7v-0.9H118.2z M114.6,118  c-0.4-0.1-0.8-0.2-1.3-0.2c0.1-0.1,0.1-0.1,0.2-0.2h1.8L114.6,118z M111.1,116.7c0.9,0,1.5,0.3,1.6,0.4c-0.1,0.1-0.7,0.4-1.6,0.4  c-0.9,0-1.5-0.3-1.6-0.4C109.6,117,110.2,116.7,111.1,116.7z M113.2,119.5c-0.9,0-1.5-0.3-1.6-0.4c0.1-0.1,0.7-0.4,1.6-0.4  s1.5,0.3,1.6,0.4C114.6,119.2,114.1,119.5,113.2,119.5z"/><g><g><path d="M96.9,114.4l-3.8-2.2l7-1.5l3.8,2.2L96.9,114.4z M95.1,112.5l2,1.1l4.9-1l-2-1.1L95.1,112.5z"/></g><g><path d="M106.6,116.8l-7.9-0.4l2.7-2.6L106.6,116.8z M100.4,115.7l3.3,0.2l-2.2-1.3L100.4,115.7z"/></g><g><path d="M106.7,115c-1,0-1.9-0.2-2.4-0.5c-0.5-0.3-0.5-0.6-0.5-0.8c0.1-0.7,1.3-1.1,2-1.2c1.6-0.3,3.6-0.2,4.4,0.3    c0.5,0.3,0.5,0.6,0.5,0.8c-0.1,0.7-1.3,1.1-2,1.2l0,0C108.1,114.9,107.4,115,106.7,115z M104.5,113.9c0,0,0,0,0.1,0.1    c0.6,0.4,2.3,0.5,3.9,0.2c1-0.2,1.4-0.5,1.5-0.6c0,0,0,0-0.1-0.1c-0.6-0.4-2.3-0.5-3.9-0.2C105,113.4,104.6,113.7,104.5,113.9    C104.5,113.9,104.5,113.9,104.5,113.9z"/></g></g><text x="0" y="188.2" fill="#000000" font-size="5px" font-weight="bold" font-family="'Helvetica Neue', Helvetica, Arial-Unicode, Arial, Sans-serif">Created by Esther Se.Kim</text><text x="0" y="193.2" fill="#000000" font-size="5px" font-weight="bold" font-family="'Helvetica Neue', Helvetica, Arial-Unicode, Arial, Sans-serif">from the Noun Project</text></svg>