<svg xmlns="http://www.w3.org/2000/svg" xmlns:xlink="http://www.w3.org/1999/xlink" version="1.1" x="0px" y="0px" viewBox="0 0 65 81.25" enable-background="new 0 0 65 65" xml:space="preserve"><g><rect x="22.8" y="6.4" transform="matrix(0.3828 0.9238 -0.9238 0.3828 21.8205 -18.3462)" width="3.7" height="1.5"/><rect x="11.4" y="17.7" transform="matrix(0.9239 0.3827 -0.3827 0.9239 8.0496 -3.655)" width="3.7" height="1.5"/><rect x="11.2" y="33.7" transform="matrix(0.9239 -0.3826 0.3826 0.9239 -12.181 7.625)" width="3.7" height="1.5"/><rect x="50" y="34" transform="matrix(-0.9239 -0.3826 0.3826 -0.9239 86.3406 86.6761)" width="3.7" height="1.5"/><rect x="50.1" y="18" transform="matrix(-0.9238 0.3828 -0.3828 -0.9238 107.0504 16.1331)" width="3.7" height="1.5"/><rect x="39.9" y="5.5" transform="matrix(0.9239 0.3826 -0.3826 0.9239 5.8826 -15.0068)" width="1.5" height="3.7"/><rect x="31.9" y="0.1" width="1.5" height="7.3"/><rect x="12.8" y="9.6" transform="matrix(0.7071 0.7071 -0.7071 0.7071 12.1514 -8.6441)" width="7.3" height="1.5"/><rect x="6" y="25.7" width="7.3" height="1.5"/><rect x="15.5" y="38.9" transform="matrix(-0.7071 -0.7071 0.7071 -0.7071 -2.3295 84.1697)" width="1.5" height="7.3"/><rect x="44.8" y="42.1" transform="matrix(-0.7071 -0.7071 0.7071 -0.7071 52.5099 107.3664)" width="7.3" height="1.5"/><rect x="51.6" y="26" width="7.3" height="1.5"/><rect x="48" y="6.9" transform="matrix(0.7071 0.7071 -0.7071 0.7071 21.7595 -31.357)" width="1.5" height="7.3"/><path d="M49,26.4c0-9.2-7.5-16.6-16.6-16.6c-9.2,0-16.6,7.5-16.6,16.6c0,8.1,5.9,14.9,13.6,16.3v3.1c-1.4,0.1-2.5,1.2-2.5,2.6v10.9   c0,3.1,2.5,5.5,5.5,5.5c3.1,0,5.5-2.5,5.5-5.5V48.4c0-1.4-1.1-2.6-2.5-2.6v-3.1C43.1,41.3,49,34.5,49,26.4z M32.4,11.3   c8.3,0,15.1,6.8,15.1,15.1c0,3.3-1.1,6.4-2.9,8.9c-0.1-0.8-0.1-1.4-0.1-1.4c0-1-0.3-2-0.9-3c-0.6-1-1.6-1.8-2.7-2.3l-4.2-1.5   L32.9,34h-1.1l-3.7-6.9l-4.2,1.5c-1.2,0.4-2.1,1.2-2.7,2.2c-0.6,1-0.9,2-0.9,2.9c0,0-0.1,0.6-0.1,1.5c-1.8-2.5-2.9-5.5-2.9-8.9   C17.3,18,24.1,11.3,32.4,11.3z M21.5,36.9c0.1-1.7,0.3-2.9,0.3-3c0-0.9,0.4-1.7,0.7-2.3c0.4-0.7,1.1-1.3,1.9-1.6l3-1.1l3.5,6.5h2.9   l3.5-6.5l3,1.1c0.8,0.3,1.5,0.9,1.9,1.6c0.3,0.5,0.7,1.4,0.7,2.3c0,0,0.1,1.2,0.3,2.9c-2.7,2.8-6.6,4.6-10.8,4.6   C28.1,41.5,24.3,39.7,21.5,36.9z M35.3,47.3c0.6,0,1.1,0.5,1.1,1.1v10.9c0,2.2-1.8,4-4,4s-4-1.8-4-4V48.4c0-0.6,0.5-1.1,1.1-1.1   h1.4v-4.4c0.5,0,1,0.1,1.5,0.1s1,0,1.5-0.1v4.4H35.3z"/><rect x="31.6" y="58.7" width="1.5" height="1.5"/><rect x="31.6" y="55.5" width="1.5" height="1.5"/><rect x="31.6" y="52.3" width="1.5" height="1.4"/><path d="M32.2,26.6c3.1,0,5.7-2.5,5.7-5.7s-2.5-5.7-5.7-5.7s-5.7,2.5-5.7,5.7S29.1,26.6,32.2,26.6z M32.2,16.8   c2.3,0,4.2,1.9,4.2,4.2c0,2.3-1.9,4.2-4.2,4.2c-2.3,0-4.2-1.9-4.2-4.2C28,18.6,29.9,16.8,32.2,16.8z"/></g><text x="0" y="80" fill="#000000" font-size="5px" font-weight="bold" font-family="'Helvetica Neue', Helvetica, Arial-Unicode, Arial, Sans-serif">Created by Creative Stall</text><text x="0" y="85" fill="#000000" font-size="5px" font-weight="bold" font-family="'Helvetica Neue', Helvetica, Arial-Unicode, Arial, Sans-serif">from the Noun Project</text></svg>