<svg xmlns="http://www.w3.org/2000/svg" xmlns:xlink="http://www.w3.org/1999/xlink" version="1.1" x="0px" y="0px" viewBox="0 0 100 125" enable-background="new 0 0 100 100" xml:space="preserve"><g><path fill="#000000" d="M27.7,45.8c0.7,0,1.2-0.6,1.2-1.3c0-0.2,0-0.5,0-0.7c2-0.6,3.5-2.4,3.5-4.5c0-2.6-2.1-4.8-4.8-4.8   c-2.6,0-4.8,2.1-4.8,4.8c0,2.2,1.5,4,3.5,4.6c0,0.3,0,0.5,0.1,0.8C26.4,45.3,26.9,45.8,27.7,45.8C27.6,45.8,27.6,45.8,27.7,45.8z    M27.5,36.9c1.2,0,2.2,1,2.2,2.2s-1,2.2-2.2,2.2c-1.2,0-2.2-1-2.2-2.2S26.2,36.9,27.5,36.9z"/><path fill="#000000" d="M30,52.1c-0.3-0.8-0.5-1.8-0.6-2.8c-0.1-0.7-0.8-1.1-1.4-1c-0.7,0.1-1.1,0.8-1,1.4c0.2,1.1,0.4,2.2,0.7,3.1   c0.2,0.5,0.7,0.9,1.2,0.9c0.1,0,0.2,0,0.4-0.1C29.9,53.4,30.2,52.7,30,52.1z"/><path fill="#000000" d="M34.1,57.1c-0.7-0.2-1.4-0.6-2-1.2c-0.5-0.5-1.3-0.5-1.8,0c-0.5,0.5-0.5,1.3,0,1.8c0.9,0.9,2,1.5,3.1,1.8   c0.1,0,0.2,0,0.3,0c0.6,0,1.1-0.4,1.2-0.9C35.1,58,34.7,57.3,34.1,57.1z"/><path fill="#000000" d="M53.1,43.8c-0.5-0.5-1.3-0.4-1.8,0.1c-0.6,0.6-1.2,1.4-2,2.3c-0.4,0.5-0.4,1.3,0.2,1.8   c0.2,0.2,0.5,0.3,0.8,0.3c0.4,0,0.7-0.2,1-0.4c0.8-0.9,1.4-1.6,1.9-2.2C53.6,45.1,53.6,44.3,53.1,43.8z"/><path fill="#000000" d="M46.1,50c-0.7,0.9-1.4,1.6-2,2.2c-0.5,0.5-0.5,1.3,0,1.8c0.2,0.2,0.6,0.3,0.9,0.3c0.3,0,0.7-0.1,0.9-0.4   c0.6-0.7,1.3-1.4,2.1-2.3c0.4-0.5,0.4-1.3-0.1-1.8C47.3,49.4,46.6,49.5,46.1,50z"/><path fill="#000000" d="M64.1,39c-0.6-0.3-1.4-0.1-1.7,0.6c-0.3,0.6-0.1,1.4,0.6,1.7c0.6,0.3,1.2,0.9,1.7,1.6   c0.2,0.4,0.6,0.6,1,0.6c0.2,0,0.5-0.1,0.7-0.2c0.6-0.4,0.7-1.1,0.4-1.7C66,40.3,65.1,39.5,64.1,39z"/><path fill="#000000" d="M75,63.6c0-0.7-0.6-1.2-1.2-1.2h-0.9v-2.5c0-0.7-0.6-1.2-1.2-1.2s-1.2,0.6-1.2,1.2v3.7   c0,0.7,0.6,1.3,1.2,1.3h2.1C74.4,64.8,75,64.3,75,63.6z"/><path fill="#000000" d="M81.9,46.4V21c0-0.4-0.2-0.8-0.6-1c-0.3-0.2-0.8-0.3-1.2-0.1l-20.8,8.8l-20.8-8.8c0,0,0,0,0,0   c0,0-0.1,0-0.2,0c0,0-0.1,0-0.1,0c-0.1,0-0.1,0-0.2,0c-0.1,0-0.1,0-0.2,0c0,0-0.1,0-0.1,0c-0.1,0-0.1,0-0.2,0c0,0,0,0,0,0l-21.3,9   c-0.5,0.2-0.8,0.6-0.8,1.2v44.2c0,0.4,0.2,0.8,0.6,1c0.2,0.1,0.4,0.2,0.7,0.2c0.2,0,0.3,0,0.5-0.1L38,66.6l16.9,7.1   c3.4,6.2,10,10.5,17.6,10.5c11.1,0,20.1-9,20.1-20.1C92.6,56.5,88.3,49.8,81.9,46.4z M60.6,30.9l18.8-7.9v22.4   c-2.1-0.8-4.5-1.2-6.9-1.2c-4.5,0-8.6,1.5-12,4V30.9z M70.2,69.6c-0.5-0.2-1-0.5-1.4-0.8c-0.4-0.3-0.8-0.6-1-0.8   c0.1-0.8,0-1.8-0.4-2.9c-0.7-2-1-3.4-0.9-5.2c0.3-2.7,2.9-5.1,5.8-5.1h0.1c2.9,0,5.6,2.3,5.8,5.1c0.2,1.8-0.2,3.2-0.9,5.2   c0,0,0,0,0,0c-0.2,0.5-0.3,1-0.4,1.5c-0.1,0.5-0.1,0.9,0,1.4c0,0,0,0,0,0c-1.5,1.4-3.1,2-4.7,2c-0.1,0-0.1,0-0.2,0   C71.6,70.1,70.9,69.9,70.2,69.6z M59.1,75.4c0,0-0.1-0.1-0.1-0.1c0-0.1,0.1-0.2,0.1-0.2c0.3-0.5,0.7-0.9,1.2-1.3   c0.1-0.1,0.2-0.1,0.2-0.2c1-0.7,2.2-1.3,3.4-1.8c0.6-0.3,1.2-0.6,1.8-0.9c0.3-0.2,0.6-0.4,0.8-0.6c0.2,0.2,0.5,0.4,0.7,0.5   c0.4,0.3,0.8,0.5,1.3,0.8c1,0.5,2.3,0.9,3.7,1c0.1,0,0.1,0,0.2,0c2,0,4-0.8,5.8-2.3c0.2,0.2,0.5,0.4,0.8,0.6   c0.6,0.3,1.2,0.6,1.8,0.9c1.9,0.9,3.8,1.8,4.8,3.3c0.1,0.1,0.1,0.2,0.2,0.3c-3.2,3.8-8.1,6.3-13.5,6.3   C67.2,81.7,62.3,79.3,59.1,75.4C59.1,75.5,59.1,75.4,59.1,75.4z M87.5,73.2c-1.4-1.8-3.5-2.8-5.5-3.7c-0.6-0.3-1.2-0.5-1.7-0.8   c-0.5-0.3-0.9-0.6-0.8-1.7c0-0.3,0.1-0.6,0.3-1c0.1-0.2,0.1-0.3,0.2-0.5c0.3-0.8,0.5-1.5,0.6-2.2c0.2-1.2,0.3-2.3,0.2-3.6   c0-0.4-0.1-0.7-0.2-1.1c-0.2-1-0.7-1.8-1.2-2.6c-1.5-2.1-4.1-3.6-6.9-3.6h-0.1c-1.7,0-3.3,0.5-4.7,1.5c-0.8,0.6-1.6,1.3-2.2,2.1   c-0.8,1.1-1.3,2.4-1.5,3.8c-0.3,2.5,0.3,4.4,1,6.3c0.7,1.9,0.1,2.4-0.5,2.7c-0.5,0.3-1.1,0.5-1.7,0.8c-0.7,0.4-1.5,0.7-2.3,1.1   c-0.4,0.2-0.8,0.5-1.2,0.8c-0.4,0.3-0.9,0.6-1.2,1c-0.2,0.2-0.4,0.4-0.6,0.7c-0.3-0.4-0.5-0.9-0.7-1.3c-1.1-2.3-1.8-4.9-1.8-7.6   c0-3.7,1.1-7.1,3.1-9.9c0.4-0.6,0.8-1.1,1.2-1.6c0.4-0.5,0.8-0.9,1.2-1.3c1.6-1.5,3.5-2.7,5.6-3.5c0.8-0.3,1.6-0.6,2.4-0.8   c1.3-0.3,2.6-0.5,4-0.5c2.4,0,4.8,0.5,6.9,1.4c0.4,0.2,0.8,0.4,1.2,0.6c0.4,0.2,0.8,0.5,1.2,0.7c4.9,3.1,8.2,8.6,8.2,14.8   C90.1,67.5,89.2,70.6,87.5,73.2z M39.2,64.4v-5.5c0.9-0.4,1.8-0.9,2.8-1.5c0.6-0.4,0.7-1.2,0.3-1.7c-0.4-0.6-1.2-0.7-1.7-0.3   c-0.5,0.3-0.9,0.6-1.3,0.8V22.9l18.8,7.9v8c-0.9,0.3-1.9,0.8-2.8,1.5c-0.6,0.4-0.7,1.2-0.3,1.7c0.2,0.4,0.6,0.5,1,0.5   c0.2,0,0.5-0.1,0.7-0.2c0.5-0.3,0.9-0.6,1.4-0.8v8.7c-3.5,3.6-5.6,8.5-5.6,13.9c0,2.2,0.4,4.3,1,6.3L39.2,64.4z M17.9,30.9   l18.8-7.9v41.5l-18.8,7.9V30.9z"/></g><text x="0" y="115" fill="#000000" font-size="5px" font-weight="bold" font-family="'Helvetica Neue', Helvetica, Arial-Unicode, Arial, Sans-serif">Created by Yu Luck</text><text x="0" y="120" fill="#000000" font-size="5px" font-weight="bold" font-family="'Helvetica Neue', Helvetica, Arial-Unicode, Arial, Sans-serif">from the Noun Project</text></svg>