<?xml version="1.0" encoding="utf-8"?>
<!-- Generator: Adobe Illustrator 24.1.2, SVG Export Plug-In . SVG Version: 6.00 Build 0)  -->
<svg version="1.1" id="Layer_1" xmlns="http://www.w3.org/2000/svg" xmlns:xlink="http://www.w3.org/1999/xlink" x="0px" y="0px"
	 viewBox="0 0 99.8 126.1" style="enable-background:new 0 0 99.8 126.1;" xml:space="preserve">
<style type="text/css">
	.st0{fill:none;}
</style>
<g>
	<path d="M38.8,64.2c4-2.7,6.6-7.3,6.6-12.4c0-8.3-6.7-15-15-15s-15,6.7-15,15c0,5.2,2.6,9.7,6.6,12.4c-4.3,1.2-7.4,5.2-7.4,9.8
		v13.5c0.9-0.2,1.9-0.4,2.9-0.6V74c0-3.6,2.7-6.6,6.1-7.2l2.3,9.3c0.1,0.5,0.5,0.9,0.9,1c0.2,0.1,0.3,0.1,0.5,0.1
		c0.3,0,0.6-0.1,0.9-0.3l4-3v11c1-0.1,2-0.2,2.9-0.2V74l3.9,2.9c0.7-1.2,1.6-2.4,2.7-3.4l0.3-3.2c0.4,0.7,0.7,1.4,0.9,2.2
		c0.8-0.6,1.7-1.2,2.6-1.6C44.7,67.7,42.1,65.1,38.8,64.2z M18.4,51.8c0-6.6,5.4-12,12-12s12,5.4,12,12s-5.4,12-12,12
		S18.4,58.4,18.4,51.8z M28.3,73.3l-1.6-6.5h1.4l3.6,4L28.3,73.3z M33.8,68.8l-1.8-2h3.6L33.8,68.8z M39,73.1l-3-2.2l3-3.4
		c0.2,0.1,0.4,0.2,0.5,0.3L39,73.1z"/>
</g>
<g>
	<path d="M84.8,62.9c4-2.7,6.6-7.3,6.6-12.4c0-8.3-6.7-15-15-15s-15,6.7-15,15c0,5.2,2.6,9.7,6.6,12.4c-4.1,1.2-7.2,4.9-7.4,9.3
		c1.1,0.8,2.1,1.7,2.9,2.7v-2.2c0-3,1.9-5.6,4.5-6.7c1.5,3.2,4.7,5.3,8.3,5.3s6.8-2.1,8.3-5.3c2.6,1.1,4.5,3.7,4.5,6.7v5.2h-5.2
		v-3.5c0-0.8-0.7-1.5-1.5-1.5s-1.5,0.7-1.5,1.5v12.2c1,0.2,2,0.4,2.9,0.6v-6.4H89v7.6c1.1,0.3,2,0.6,2.9,0.9V72.7
		C92.2,68,89.1,64.1,84.8,62.9z M76.4,68.3c-2.2,0-4.1-1.1-5.3-2.9h10.5C80.6,67.2,78.6,68.3,76.4,68.3z M76.5,62.5
		c-6.6,0-12-5.4-12-12s5.4-12,12-12s12,5.4,12,12S83.1,62.5,76.5,62.5z"/>
</g>
<path d="M23.4,74.3c-0.8,0-1.5,0.7-1.5,1.5v10.4c1-0.1,1.9-0.3,2.9-0.4v-10C24.9,75,24.2,74.3,23.4,74.3z"/>
<path d="M28.5,48.1c-0.6,0-1.1,0.4-1.4,0.9c-0.2,0.6-0.1,1.3,0.4,1.7c0.5,0.4,1.2,0.5,1.7,0.1c0.6-0.4,0.8-1.2,0.6-1.8
	C29.7,48.5,29.1,48.1,28.5,48.1z"/>
<path d="M29.9,49C29.9,49.1,29.9,48.9,29.9,49L29.9,49z"/>
<path d="M36.8,50.2L36.8,50.2c0.2,0.6,0.8,0.9,1.4,0.9c0.7,0,1.2-0.5,1.4-1.1c0.1-0.6-0.1-1.2-0.5-1.5c-0.5-0.4-1.2-0.4-1.8,0
	C36.8,48.8,36.6,49.5,36.8,50.2C36.8,50.1,36.8,50.1,36.8,50.2z"/>
<path d="M67,106.3l-0.3-3.1c22.7-1.9,30-6.5,30-8.4c0-0.9-1.6-2.4-6-4c-0.9-0.3-1.8-0.6-2.8-0.9c-1.5-0.4-3.2-0.9-5.1-1.2
	c-0.9-0.2-1.9-0.4-2.9-0.6c-4.2-0.7-8.8-1.3-13.9-1.7l0.3-3.1c5.1,0.4,9.9,1,14.2,1.8c1,0.2,2.1,0.4,3,0.6c1.9,0.4,3.7,0.8,5.3,1.3
	c1.1,0.3,2.1,0.6,3,1c5.4,2,8,4.2,8,7c0,3-3.2,5.5-9.9,7.6C84.3,104.1,76.3,105.5,67,106.3z"/>
<path d="M37,106.8c-10.2-0.6-19.3-2-25.8-3.8C3.6,100.9,0,98.2,0,95c0-3.7,5-6.7,15-8.9c1-0.2,2-0.4,3-0.6c1.4-0.3,2.9-0.5,4.4-0.7
	c1-0.1,2-0.3,3-0.4c2.4-0.3,4.9-0.6,7.5-0.8c1-0.1,2-0.2,3-0.2c0.6,0,1.2-0.1,1.9-0.1l0.2,3.1c-0.6,0-1.2,0.1-1.8,0.1
	c-1,0.1-2,0.1-2.9,0.2c-2.6,0.2-5.1,0.5-7.4,0.8c-1,0.1-2,0.3-2.9,0.4c-1.5,0.2-2.9,0.5-4.3,0.7c-1,0.2-2,0.4-2.9,0.6
	C5.9,91.4,3.2,94,3.2,95.1c0,2.7,10.9,7.3,34.1,8.7L37,106.8z"/>
<path d="M60.5,96.9c3.9-2.6,6.5-7,6.6-12c0-0.1,0-0.3,0-0.4c0-3.7-1.3-7-3.5-9.6c-0.9-1-1.8-1.9-2.9-2.7c-2.4-1.7-5.4-2.7-8.6-2.7
	c-2.3,0-4.5,0.5-6.4,1.4c-0.9,0.4-1.8,1-2.6,1.6c-0.4,0.3-0.8,0.6-1.2,1c-1.1,1-2,2.1-2.7,3.4c-1.3,2.2-2.1,4.8-2.1,7.6v0.1
	c0,5.1,2.7,9.6,6.6,12.3c-3.8,1.1-6.7,4.3-7.3,8.3c-0.1,0.5-0.1,1-0.1,1.5v17.9c0,0.8,0.7,1.5,1.5,1.5h28.6c0.8,0,1.5-0.7,1.5-1.5
	v-17.9c0-0.6-0.1-1.2-0.2-1.8C67.1,101.1,64.2,98,60.5,96.9z M40.1,84.5L40.1,84.5c0-3.1,1.2-6,3.2-8.1c0.9-0.9,1.8-1.7,2.9-2.4
	c1.8-1,3.8-1.6,5.9-1.6c3.3,0,6.3,1.4,8.5,3.5c1.3,1.3,2.4,3,2.9,4.8c0.4,1.2,0.6,2.4,0.6,3.7c0,0.1,0,0.1,0,0.2
	c-0.1,6.6-5.5,11.9-12,11.9C45.5,96.5,40.1,91.1,40.1,84.5z M57.4,99.5c-1.1,1.8-2.8,2.3-5,2.3s-4.4-0.5-5.5-2.3H57.4z M65,106.7
	v5.2v2.9v8.2h-5.2h-2.9H39.3v-16.4c0-0.5,0-0.9,0.1-1.4c0.5-2.4,2.1-4.4,4.4-5.3c1.5,3.2,4.7,4.1,8.3,4.1c3.6,0,6.8-0.9,8.3-4.1
	c2.2,0.9,3.8,2.8,4.3,5.1C64.9,105.7,65,106.2,65,106.7z"/>
<path d="M38.6,78.2c-0.2-0.6-0.8-0.9-1.4-0.9s-1.2,0.5-1.4,1.1c-0.2,0.6,0.1,1.3,0.6,1.6c0.5,0.3,1.2,0.3,1.7-0.1
	C38.7,79.5,38.9,78.8,38.6,78.2C38.6,78.1,38.6,78.2,38.6,78.2L38.6,78.2z"/>
<path d="M72.6,34.5c0.2,0.2,0.5,0.2,0.8,0.2c0.2,0,0.5-0.1,0.7-0.2c0.5-0.3,0.8-0.8,0.8-1.3v-3.4h1.5c2.5,0,4.6-2.1,4.6-4.6V9.8
	c0-2.5-2.1-4.6-4.6-4.6H61.1V4.6C61.1,2.1,59,0,56.5,0h-27c-2.5,0-4.6,2.1-4.6,4.6V20c0,2.5,2.1,4.6,4.6,4.6H31V28
	c0,0.5,0.3,1,0.8,1.3c0.2,0.1,0.5,0.2,0.7,0.2c0.3,0,0.6-0.1,0.8-0.2l7.3-4.7h4.2v0.6c0,2.5,2.1,4.6,4.6,4.6h16L72.6,34.5z
	 M40.2,21.7c-0.3,0-0.6,0.1-0.8,0.2L34,25.4v-2.2c0-0.8-0.7-1.5-1.5-1.5h-3c-0.9,0-1.6-0.7-1.6-1.6V4.6c0-0.9,0.7-1.6,1.6-1.6h27.1
	c0.9,0,1.6,0.7,1.6,1.6v0.6h-8.9c-2,0-3.7,1.3-4.3,3.1H33.8c-0.8,0-1.5,0.7-1.5,1.5c0,0.8,0.7,1.5,1.5,1.5h11v2.5h-11
	c-0.8,0-1.5,0.7-1.5,1.5s0.7,1.5,1.5,1.5h11v5h-4.6V21.7z M47.7,25.2V9.8c0-0.9,0.7-1.6,1.6-1.6h27.1c0.9,0,1.6,0.7,1.6,1.6v15.4
	c0,0.9-0.7,1.6-1.6,1.6h-3c-0.8,0-1.5,0.7-1.5,1.5v2.2L66.5,27c-0.2-0.2-0.5-0.2-0.8-0.2H49.3C48.4,26.9,47.7,26.1,47.7,25.2
	L47.7,25.2z"/>
<path d="M53.6,16.4h18.5c0.8,0,1.5-0.7,1.5-1.5s-0.7-1.5-1.5-1.5H53.6c-0.8,0-1.5,0.7-1.5,1.5C52.1,15.8,52.8,16.4,53.6,16.4
	L53.6,16.4z"/>
<path d="M73.6,20.4c0-0.8-0.7-1.5-1.5-1.5H53.6c-0.8,0-1.5,0.7-1.5,1.5s0.7,1.5,1.5,1.5h18.5C72.9,21.9,73.6,21.2,73.6,20.4
	L73.6,20.4z"/>
<path d="M77,48.8c0.3,0.6,0.9,1,1.6,0.9c0.6-0.1,1.1-0.5,1.2-1.1c0.2-0.6-0.1-1.2-0.6-1.6c-0.6-0.4-1.4-0.3-1.9,0.2
	C76.9,47.6,76.7,48.3,77,48.8C77,48.9,76.9,48.7,77,48.8L77,48.8z"/>
<path d="M70.1,48c0-0.2-0.1-0.4-0.2-0.5c-0.7-1.1-2.5-0.7-2.7,0.6c-0.2,1.2,1.1,2.1,2.2,1.5C70,49.2,70.3,48.6,70.1,48
	C70.1,47.9,70.2,48.1,70.1,48L70.1,48z"/>
<path d="M76.7,53.3c-0.5-0.5-1.2-0.5-1.7,0c-0.4,0.4-0.9,0.6-1.5,0.6s-1.1-0.2-1.5-0.6c-0.5-0.5-1.2-0.5-1.7,0s-0.5,1.2,0,1.7
	c0.9,0.9,2,1.3,3.1,1.3s2.3-0.4,3.1-1.3C77.2,54.5,77.2,53.8,76.7,53.3L76.7,53.3z"/>
<path d="M59.8,123.1"/>
<polygon points="75.4,99.9 75.9,98 66.5,95.7 64.4,96 66.1,97.6 "/>
<g>
	<g>
		<path d="M24.2,102.3l-5.6-10.1l17.2-1.4l7.6,9.6L24.2,102.3z M21.4,93.7l3.7,6.8l15-1.5L35,92.6L21.4,93.7z"/>
	</g>
	<g>
		<line class="st0" x1="24.1" y1="94.6" x2="34.6" y2="93.8"/>
		<rect x="24" y="93.8" transform="matrix(0.9972 -7.520032e-02 7.520032e-02 0.9972 -7.0052 2.4705)" width="10.6" height="0.9"/>
	</g>
	<g>
		<line class="st0" x1="25.3" y1="96.6" x2="35.9" y2="95.8"/>
		
			<rect x="25.3" y="95.8" transform="matrix(0.9967 -8.154761e-02 8.154761e-02 0.9967 -7.7473 2.8164)" width="10.6" height="0.9"/>
	</g>
	<g>
		<line class="st0" x1="26.6" y1="98.9" x2="37.2" y2="98"/>
		<rect x="26.6" y="98" transform="matrix(0.9967 -8.152790e-02 8.152790e-02 0.9967 -7.9205 2.9287)" width="10.6" height="0.9"/>
	</g>
</g>
<path d="M89.5,93.2l0.9-0.6l-0.5-0.7l-2,1.3h-3.1c-0.4-0.6-1.4-0.9-2.4-0.9c-1.2,0-2.5,0.4-2.5,1.3s1.2,1.3,2.3,1.3
	c-0.2,0.2-0.3,0.4-0.3,0.6c0,0.9,1.3,1.3,2.5,1.3s2.5-0.4,2.5-1.3c0-0.2-0.1-0.4-0.2-0.6l1.4-0.9h3.7v-0.9L89.5,93.2L89.5,93.2z
	 M85.9,94.5c-0.4-0.1-0.8-0.2-1.3-0.2c0.1-0.1,0.1-0.1,0.2-0.2h1.8L85.9,94.5z M82.4,93.2c0.9,0,1.5,0.3,1.6,0.4
	c-0.1,0.1-0.7,0.4-1.6,0.4s-1.5-0.3-1.6-0.4C80.9,93.5,81.5,93.2,82.4,93.2z M84.5,96c-0.9,0-1.5-0.3-1.6-0.4
	c0.1-0.1,0.7-0.4,1.6-0.4s1.5,0.3,1.6,0.4C85.9,95.7,85.4,96,84.5,96z"/>
<g>
	<g>
		<path d="M68.2,90.9l-3.8-2.2l7-1.5l3.8,2.2L68.2,90.9z M66.4,89l2,1.1l4.9-1l-2-1.1L66.4,89z"/>
	</g>
	<g>
		<path d="M77.9,93.3L70,92.9l2.7-2.6L77.9,93.3z M71.7,92.2l3.3,0.2l-2.2-1.3L71.7,92.2z"/>
	</g>
	<g>
		<path d="M78,91.5c-1,0-1.9-0.2-2.4-0.5s-0.5-0.6-0.5-0.8c0.1-0.7,1.3-1.1,2-1.2c1.6-0.3,3.6-0.2,4.4,0.3c0.5,0.3,0.5,0.6,0.5,0.8
			c-0.1,0.7-1.3,1.1-2,1.2l0,0C79.4,91.4,78.7,91.5,78,91.5z M75.8,90.4C75.8,90.4,75.8,90.4,75.8,90.4c0.7,0.5,2.4,0.6,4,0.3
			c1-0.2,1.4-0.5,1.5-0.6c0,0,0,0-0.1-0.1c-0.6-0.4-2.3-0.5-3.9-0.2C76.3,89.9,75.9,90.2,75.8,90.4L75.8,90.4z"/>
	</g>
</g>
</svg>
