<?xml version="1.0" encoding="utf-8"?>
<!-- Generator: Adobe Illustrator 24.1.2, SVG Export Plug-In . SVG Version: 6.00 Build 0)  -->
<svg version="1.1" id="Layer_1" xmlns="http://www.w3.org/2000/svg" xmlns:xlink="http://www.w3.org/1999/xlink" x="0px" y="0px"
	 viewBox="0 0 77.2 64.4" style="enable-background:new 0 0 77.2 64.4;" xml:space="preserve">
<g>
	<path d="M12.3,26c0.7,0,1.2-0.6,1.2-1.3c0-0.2,0-0.5,0-0.7c2-0.6,3.5-2.4,3.5-4.5c0-2.6-2.1-4.8-4.8-4.8c-2.6,0-4.8,2.1-4.8,4.8
		c0,2.2,1.5,4,3.5,4.6c0,0.3,0,0.5,0.1,0.8C11,25.5,11.5,26,12.3,26C12.2,26,12.2,26,12.3,26z M12.1,17.1c1.2,0,2.2,1,2.2,2.2
		s-1,2.2-2.2,2.2s-2.2-1-2.2-2.2S10.8,17.1,12.1,17.1z"/>
	<path d="M14.6,32.3c-0.3-0.8-0.5-1.8-0.6-2.8c-0.1-0.7-0.8-1.1-1.4-1c-0.7,0.1-1.1,0.8-1,1.4c0.2,1.1,0.4,2.2,0.7,3.1
		c0.2,0.5,0.7,0.9,1.2,0.9c0.1,0,0.2,0,0.4-0.1C14.5,33.6,14.8,32.9,14.6,32.3z"/>
	<path d="M18.7,37.3c-0.7-0.2-1.4-0.6-2-1.2c-0.5-0.5-1.3-0.5-1.8,0s-0.5,1.3,0,1.8c0.9,0.9,2,1.5,3.1,1.8c0.1,0,0.2,0,0.3,0
		c0.6,0,1.1-0.4,1.2-0.9C19.7,38.2,19.3,37.5,18.7,37.3z"/>
	<path d="M37.7,24c-0.5-0.5-1.3-0.4-1.8,0.1c-0.6,0.6-1.2,1.4-2,2.3c-0.4,0.5-0.4,1.3,0.2,1.8c0.2,0.2,0.5,0.3,0.8,0.3
		c0.4,0,0.7-0.2,1-0.4c0.8-0.9,1.4-1.6,1.9-2.2C38.2,25.3,38.2,24.5,37.7,24z"/>
	<path d="M30.7,30.2c-0.7,0.9-1.4,1.6-2,2.2c-0.5,0.5-0.5,1.3,0,1.8c0.2,0.2,0.6,0.3,0.9,0.3c0.3,0,0.7-0.1,0.9-0.4
		c0.6-0.7,1.3-1.4,2.1-2.3c0.4-0.5,0.4-1.3-0.1-1.8C31.9,29.6,31.2,29.7,30.7,30.2z"/>
	<path d="M48.7,19.2c-0.6-0.3-1.4-0.1-1.7,0.6c-0.3,0.6-0.1,1.4,0.6,1.7c0.6,0.3,1.2,0.9,1.7,1.6c0.2,0.4,0.6,0.6,1,0.6
		c0.2,0,0.5-0.1,0.7-0.2c0.6-0.4,0.7-1.1,0.4-1.7C50.6,20.5,49.7,19.7,48.7,19.2z"/>
	<path d="M59.6,43.8c0-0.7-0.6-1.2-1.2-1.2h-0.9v-2.5c0-0.7-0.6-1.2-1.2-1.2s-1.2,0.6-1.2,1.2v3.7c0,0.7,0.6,1.3,1.2,1.3h2.1
		C59,45,59.6,44.5,59.6,43.8z"/>
	<path d="M66.5,26.6V1.2c0-0.4-0.2-0.8-0.6-1c-0.3-0.2-0.8-0.3-1.2-0.1L43.9,8.9L23.1,0.1l0,0c0,0-0.1,0-0.2,0h-0.1
		c-0.1,0-0.1,0-0.2,0c-0.1,0-0.1,0-0.2,0h-0.1c-0.1,0-0.1,0-0.2,0l0,0l-21.3,9C0.3,9.3,0,9.7,0,10.3v44.2c0,0.4,0.2,0.8,0.6,1
		c0.2,0.1,0.4,0.2,0.7,0.2c0.2,0,0.3,0,0.5-0.1l20.8-8.8l16.9,7.1c3.4,6.2,10,10.5,17.6,10.5c11.1,0,20.1-9,20.1-20.1
		C77.2,36.7,72.9,30,66.5,26.6z M45.2,11.1L64,3.2v22.4c-2.1-0.8-4.5-1.2-6.9-1.2c-4.5,0-8.6,1.5-12,4V11.1H45.2z M54.8,49.8
		c-0.5-0.2-1-0.5-1.4-0.8s-0.8-0.6-1-0.8c0.1-0.8,0-1.8-0.4-2.9c-0.7-2-1-3.4-0.9-5.2c0.3-2.7,2.9-5.1,5.8-5.1H57
		c2.9,0,5.6,2.3,5.8,5.1c0.2,1.8-0.2,3.2-0.9,5.2l0,0c-0.2,0.5-0.3,1-0.4,1.5s-0.1,0.9,0,1.4l0,0c-1.5,1.4-3.1,2-4.7,2
		c-0.1,0-0.1,0-0.2,0C56.2,50.3,55.5,50.1,54.8,49.8z M43.7,55.6L43.7,55.6c-0.1-0.2,0-0.3,0-0.3c0.3-0.5,0.7-0.9,1.2-1.3
		c0.1-0.1,0.2-0.1,0.2-0.2c1-0.7,2.2-1.3,3.4-1.8c0.6-0.3,1.2-0.6,1.8-0.9c0.3-0.2,0.6-0.4,0.8-0.6c0.2,0.2,0.5,0.4,0.7,0.5
		c0.4,0.3,0.8,0.5,1.3,0.8c1,0.5,2.3,0.9,3.7,1c0.1,0,0.1,0,0.2,0c2,0,4-0.8,5.8-2.3c0.2,0.2,0.5,0.4,0.8,0.6
		c0.6,0.3,1.2,0.6,1.8,0.9c1.9,0.9,3.8,1.8,4.8,3.3c0.1,0.1,0.1,0.2,0.2,0.3c-3.2,3.8-8.1,6.3-13.5,6.3
		C51.8,61.9,46.9,59.5,43.7,55.6C43.7,55.7,43.7,55.6,43.7,55.6z M72.1,53.4c-1.4-1.8-3.5-2.8-5.5-3.7c-0.6-0.3-1.2-0.5-1.7-0.8
		s-0.9-0.6-0.8-1.7c0-0.3,0.1-0.6,0.3-1c0.1-0.2,0.1-0.3,0.2-0.5c0.3-0.8,0.5-1.5,0.6-2.2c0.2-1.2,0.3-2.3,0.2-3.6
		c0-0.4-0.1-0.7-0.2-1.1c-0.2-1-0.7-1.8-1.2-2.6c-1.5-2.1-4.1-3.6-6.9-3.6H57c-1.7,0-3.3,0.5-4.7,1.5c-0.8,0.6-1.6,1.3-2.2,2.1
		c-0.8,1.1-1.3,2.4-1.5,3.8c-0.3,2.5,0.3,4.4,1,6.3s0.1,2.4-0.5,2.7c-0.5,0.3-1.1,0.5-1.7,0.8c-0.7,0.4-1.5,0.7-2.3,1.1
		c-0.4,0.2-0.8,0.5-1.2,0.8s-0.9,0.6-1.2,1c-0.2,0.2-0.4,0.4-0.6,0.7c-0.3-0.4-0.5-0.9-0.7-1.3c-1.1-2.3-1.8-4.9-1.8-7.6
		c0-3.7,1.1-7.1,3.1-9.9c0.4-0.6,0.8-1.1,1.2-1.6s0.8-0.9,1.2-1.3c1.6-1.5,3.5-2.7,5.6-3.5c0.8-0.3,1.6-0.6,2.4-0.8
		c1.3-0.3,2.6-0.5,4-0.5c2.4,0,4.8,0.5,6.9,1.4c0.4,0.2,0.8,0.4,1.2,0.6c0.4,0.2,0.8,0.5,1.2,0.7c4.9,3.1,8.2,8.6,8.2,14.8
		C74.7,47.7,73.8,50.8,72.1,53.4z M23.8,44.6v-5.5c0.9-0.4,1.8-0.9,2.8-1.5c0.6-0.4,0.7-1.2,0.3-1.7c-0.4-0.6-1.2-0.7-1.7-0.3
		c-0.5,0.3-0.9,0.6-1.3,0.8V3.1L42.7,11v8c-0.9,0.3-1.9,0.8-2.8,1.5c-0.6,0.4-0.7,1.2-0.3,1.7c0.2,0.4,0.6,0.5,1,0.5
		c0.2,0,0.5-0.1,0.7-0.2c0.5-0.3,0.9-0.6,1.4-0.8v8.7c-3.5,3.6-5.6,8.5-5.6,13.9c0,2.2,0.4,4.3,1,6.3L23.8,44.6z M2.5,11.1l18.8-7.9
		v41.5L2.5,52.6C2.5,52.6,2.5,11.1,2.5,11.1z"/>
</g>
</svg>
