<svg xmlns="http://www.w3.org/2000/svg" xmlns:xlink="http://www.w3.org/1999/xlink" version="1.1" x="0px" y="0px" viewBox="0 0 100 125" style="enable-background:new 0 0 100 100;" xml:space="preserve"><g><path d="M4,17.44v65.12h92V17.44H4z M94,26.88H6v-7.44h88V26.88z M94,80.56H6V28.88h88V80.56z"/><path d="M20.55,23.76h0.55c0.55,0,1-0.45,1-1s-0.45-1-1-1h-0.55c-0.55,0-1,0.45-1,1S20,23.76,20.55,23.76z"/><path d="M15.55,23.76h0.55c0.55,0,1-0.45,1-1s-0.45-1-1-1h-0.55c-0.55,0-1,0.45-1,1S15,23.76,15.55,23.76z"/><path d="M10.55,23.76h0.55c0.55,0,1-0.45,1-1s-0.45-1-1-1h-0.55c-0.55,0-1,0.45-1,1S10,23.76,10.55,23.76z"/><path d="M90.18,58.55V34.17H66.6v24.38H90.18z M68.6,37.65l8.4,8.71l-8.4,8.71V37.65z M69.95,56.55l8.44-8.75l8.44,8.75H69.95z    M88.18,55.07l-8.4-8.71l8.4-8.71V55.07z M86.82,36.17l-8.44,8.75l-8.44-8.75H86.82z"/><path d="M61.79,58.55V34.17H38.21v24.38H61.79z M40.21,37.65l8.4,8.71l-8.4,8.71V37.65z M41.56,56.55L50,47.8l8.44,8.75H41.56z    M59.79,55.07l-8.4-8.71l8.4-8.71V55.07z M58.44,36.17L50,44.92l-8.44-8.75H58.44z"/><path d="M33.4,58.55V34.17H9.82v24.38H33.4z M11.82,37.65l8.4,8.71l-8.4,8.71V37.65z M13.18,56.55l8.44-8.75l8.44,8.75H13.18z    M31.4,55.07L23,46.36l8.4-8.71V55.07z M30.05,36.17l-8.44,8.75l-8.44-8.75H30.05z"/><path d="M10.55,76.25h13.38c0.55,0,1-0.45,1-1s-0.45-1-1-1H10.55c-0.55,0-1,0.45-1,1S10,76.25,10.55,76.25z"/><path d="M10.55,70.25H32.4c0.55,0,1-0.45,1-1s-0.45-1-1-1H10.55c-0.55,0-1,0.45-1,1S10,70.25,10.55,70.25z"/><path d="M10.55,64.25H32.4c0.55,0,1-0.45,1-1s-0.45-1-1-1H10.55c-0.55,0-1,0.45-1,1S10,64.25,10.55,64.25z"/><path d="M39.21,76.25h13.38c0.55,0,1-0.45,1-1s-0.45-1-1-1H39.21c-0.55,0-1,0.45-1,1S38.66,76.25,39.21,76.25z"/><path d="M39.21,70.25h21.85c0.55,0,1-0.45,1-1s-0.45-1-1-1H39.21c-0.55,0-1,0.45-1,1S38.66,70.25,39.21,70.25z"/><path d="M39.21,64.25h21.85c0.55,0,1-0.45,1-1s-0.45-1-1-1H39.21c-0.55,0-1,0.45-1,1S38.66,64.25,39.21,64.25z"/><path d="M67.46,76.25h13.38c0.55,0,1-0.45,1-1s-0.45-1-1-1H67.46c-0.55,0-1,0.45-1,1S66.91,76.25,67.46,76.25z"/><path d="M67.46,70.25h21.85c0.55,0,1-0.45,1-1s-0.45-1-1-1H67.46c-0.55,0-1,0.45-1,1S66.91,70.25,67.46,70.25z"/><path d="M67.46,64.25h21.85c0.55,0,1-0.45,1-1s-0.45-1-1-1H67.46c-0.55,0-1,0.45-1,1S66.91,64.25,67.46,64.25z"/></g><text x="0" y="115" fill="#000000" font-size="5px" font-weight="bold" font-family="'Helvetica Neue', Helvetica, Arial-Unicode, Arial, Sans-serif">Created by Justin Blake</text><text x="0" y="120" fill="#000000" font-size="5px" font-weight="bold" font-family="'Helvetica Neue', Helvetica, Arial-Unicode, Arial, Sans-serif">from the Noun Project</text></svg>