<?xml version="1.0" encoding="utf-8"?>
<!-- Generator: Adobe Illustrator 24.1.2, SVG Export Plug-In . SVG Version: 6.00 Build 0)  -->
<svg version="1.1" id="Layer_1" xmlns="http://www.w3.org/2000/svg" xmlns:xlink="http://www.w3.org/1999/xlink" x="0px" y="0px"
	 viewBox="0 0 92 65.1" style="enable-background:new 0 0 92 65.1;" xml:space="preserve">
<g>
	<path d="M0,0v65.1h92V0H0z M90,9.4H2V2h88V9.4z M90,63.1H2V11.4h88V63.1z"/>
	<path d="M16.5,6.3h0.5c0.5,0,1-0.5,1-1s-0.5-1-1-1h-0.5c-0.5,0-1,0.5-1,1S16,6.3,16.5,6.3z"/>
	<path d="M11.6,6.3h0.6c0.5,0,1-0.5,1-1s-0.5-1-1-1h-0.6c-0.6,0-1,0.5-1,1S11,6.3,11.6,6.3z"/>
	<path d="M6.6,6.3h0.6c0.6,0,1-0.5,1-1s-0.4-1-1-1H6.6c-0.6,0-1,0.5-1,1S6,6.3,6.6,6.3z"/>
	<path d="M86.2,41.1V16.7H62.6v24.4C62.6,41.1,86.2,41.1,86.2,41.1z M64.6,20.2l8.4,8.7l-8.4,8.7V20.2z M65.9,39.1l8.4-8.8l8.4,8.8
		H65.9z M84.2,37.6l-8.4-8.7l8.4-8.7V37.6z M82.8,18.7l-8.4,8.8l-8.4-8.8H82.8z"/>
	<path d="M57.8,41.1V16.7H34.2v24.4C34.2,41.1,57.8,41.1,57.8,41.1z M36.2,20.2l8.4,8.7l-8.4,8.7V20.2z M37.6,39.1l8.4-8.8l8.4,8.8
		H37.6z M55.8,37.6l-8.4-8.7l8.4-8.7V37.6z M54.4,18.7L46,27.5l-8.4-8.8H54.4z"/>
	<path d="M29.4,41.1V16.7H5.8v24.4C5.8,41.1,29.4,41.1,29.4,41.1z M7.8,20.2l8.4,8.7l-8.4,8.7V20.2z M9.2,39.1l8.4-8.8l8.4,8.8H9.2z
		 M27.4,37.6L19,28.9l8.4-8.7V37.6z M26,18.7l-8.4,8.8l-8.4-8.8H26z"/>
	<path d="M6.6,58.8h13.4c0.5,0,1-0.4,1-1s-0.5-1-1-1H6.6c-0.6,0-1,0.4-1,1S6,58.8,6.6,58.8z"/>
	<path d="M6.6,52.8h21.9c0.5,0,1-0.4,1-1s-0.5-1-1-1H6.6c-0.6,0-1,0.4-1,1S6,52.8,6.6,52.8z"/>
	<path d="M6.6,46.8h21.9c0.5,0,1-0.4,1-1c0-0.5-0.5-1-1-1H6.6c-0.6,0-1,0.5-1,1C5.6,46.4,6,46.8,6.6,46.8z"/>
	<path d="M35.2,58.8h13.4c0.5,0,1-0.4,1-1s-0.5-1-1-1H35.2c-0.5,0-1,0.4-1,1S34.7,58.8,35.2,58.8z"/>
	<path d="M35.2,52.8h21.8c0.5,0,1-0.4,1-1s-0.5-1-1-1H35.2c-0.5,0-1,0.4-1,1S34.7,52.8,35.2,52.8z"/>
	<path d="M35.2,46.8h21.8c0.5,0,1-0.4,1-1c0-0.5-0.5-1-1-1H35.2c-0.5,0-1,0.5-1,1C34.2,46.4,34.7,46.8,35.2,46.8z"/>
	<path d="M63.5,58.8h13.4c0.6,0,1-0.4,1-1s-0.4-1-1-1H63.5c-0.6,0-1,0.4-1,1S62.9,58.8,63.5,58.8z"/>
	<path d="M63.5,52.8h21.8c0.6,0,1-0.4,1-1s-0.4-1-1-1H63.5c-0.6,0-1,0.4-1,1S62.9,52.8,63.5,52.8z"/>
	<path d="M63.5,46.8h21.8c0.6,0,1-0.4,1-1c0-0.5-0.4-1-1-1H63.5c-0.6,0-1,0.5-1,1C62.5,46.4,62.9,46.8,63.5,46.8z"/>
</g>
</svg>
