<?xml version="1.0" encoding="utf-8"?>
<!-- Generator: Adobe Illustrator 24.1.2, SVG Export Plug-In . SVG Version: 6.00 Build 0)  -->
<svg version="1.1" id="svg2816" xmlns:svg="http://www.w3.org/2000/svg"
	 xmlns="http://www.w3.org/2000/svg" xmlns:xlink="http://www.w3.org/1999/xlink" x="0px" y="0px" viewBox="0 0 313.9 125"
	 style="enable-background:new 0 0 313.9 125;" xml:space="preserve">
<style type="text/css">
	.st0{fill:url(#path12339_1_);}
	.st1{fill:url(#path12367_1_);}
	.st2{fill:#14559A;}
	.st3{fill:url(#path12459_1_);}
	.st4{fill:#3092C4;}
	.st5{fill:#1969BC;}
	.st6{fill:url(#path12553_1_);}
	.st7{fill:url(#path12581_1_);}
	.st8{fill:url(#path12651_1_);}
	.st9{fill:#2B74B1;}
	.st10{fill:#125A9E;}
	.st11{fill:url(#path12741_1_);}
	.st12{fill:url(#path12803_1_);}
	.st13{fill:#0D82CA;}
	.st14{fill:url(#path12831_1_);}
	.st15{fill:#127BCA;}
	.st16{fill:url(#path12923_1_);}
	.st17{fill:url(#path12949_1_);}
	.st18{fill:#05A1E6;}
	.st19{fill:url(#path12981_1_);}
	.st20{fill:url(#path13003_1_);}
	.st21{fill:url(#path13093_1_);}
	.st22{fill:#079AE1;}
	.st23{fill:#1E5CB3;}
	.st24{fill:#1D60B5;}
	.st25{fill:#175FAB;}
	.st26{fill:url(#path13139_1_);}
	.st27{fill:#7DCBEC;}
	.st28{fill:#5EC5ED;}
	.st29{fill:url(#path13245_1_);}
	.st30{fill:url(#path13255_1_);}
	.st31{fill:url(#path13333_1_);}
</style>
<g id="layer1" transform="translate(-937.60684,-1834.4815)">
	
		<linearGradient id="path12339_1_" gradientUnits="userSpaceOnUse" x1="539.515" y1="3206.186" x2="540.515" y2="3206.186" gradientTransform="matrix(0 149.7346 149.7346 0 -479002.125 -78947.7188)">
		<stop  offset="0" style="stop-color:#0994DC"/>
		<stop  offset="0.35" style="stop-color:#66CEF5"/>
		<stop  offset="0.35" style="stop-color:#66CEF5"/>
		<stop  offset="0.8462" style="stop-color:#127BCA"/>
		<stop  offset="0.8462" style="stop-color:#127BCA"/>
		<stop  offset="1" style="stop-color:#127BCA"/>
	</linearGradient>
	<path id="path12339" class="st0" d="M1046.6,1860c11.3,34.6,15.6,96.3,48.7,96.3l0,0c2.5,0,5.1-0.2,7.6-0.7l0,0
		c-30.1-7-33.6-68.1-52-99.7l0,0C1049.5,1857.2,1048.1,1858.6,1046.6,1860"/>
	
		<linearGradient id="path12367_1_" gradientUnits="userSpaceOnUse" x1="539.338" y1="3206.1189" x2="540.338" y2="3206.1189" gradientTransform="matrix(0 153.5506 153.5506 0 -491220.875 -80983.1016)">
		<stop  offset="0" style="stop-color:#0E76BC"/>
		<stop  offset="0.36" style="stop-color:#36AEE8"/>
		<stop  offset="0.36" style="stop-color:#36AEE8"/>
		<stop  offset="0.8462" style="stop-color:#00ADEF"/>
		<stop  offset="0.8462" style="stop-color:#00ADEF"/>
		<stop  offset="1" style="stop-color:#00ADEF"/>
	</linearGradient>
	<path id="path12367" class="st1" d="M1050.9,1855.9c18.3,31.6,21.9,92.7,52,99.7l0,0c2.4-0.4,4.7-1.1,7.1-1.9l0,0
		c-27-13.2-34.5-72.5-55.3-101l0,0C1053.5,1853.7,1052.2,1854.8,1050.9,1855.9"/>
	<path id="path12379" class="st2" d="M1077.4,1837.1c-2.5,0-5.1,0.2-7.6,0.7c-6.7,1.3-13.5,4.1-20.3,8.5c1.9,1.8,3.7,4,5.3,6.3
		c7-5.8,13.9-10.1,20.8-12.6c2.6-1,5.2-1.7,7.8-2.2C1081.4,1837.4,1079.5,1837.1,1077.4,1837.1"/>
	
		<linearGradient id="path12459_1_" gradientUnits="userSpaceOnUse" x1="523.6559" y1="3200.1665" x2="524.6559" y2="3200.1665" gradientTransform="matrix(0 -122.178 -122.178 0 392101.4375 65932.1406)">
		<stop  offset="0" style="stop-color:#1C63B7"/>
		<stop  offset="0.5" style="stop-color:#33BDF2"/>
		<stop  offset="1" style="stop-color:#33BDF2;stop-opacity:0.4196"/>
	</linearGradient>
	<path id="path12459" class="st3" d="M1131.1,1941.5c2.8-2.2,5.5-4.6,8.3-7.3c-11.5-34.4-15.6-97-48.9-97c-2.4,0-4.8,0.2-7.2,0.7
		C1113.6,1845.4,1117.5,1911.4,1131.1,1941.5"/>
	<path id="path12521" class="st4" d="M1083.3,1837.8c-1.9-0.5-3.8-0.7-5.9-0.7l13.1,0C1088.1,1837.2,1085.7,1837.4,1083.3,1837.8"/>
	<path id="path12525" class="st5" d="M1130.5,1948.8c-1.3-1.2-2.5-2.6-3.8-4.1c-5.6,4-11.2,7-16.7,8.9c2,1,4,1.7,6.2,2.1
		c1.7,0.3,3.5,0.5,5.3,0.5c6.2,0,11.1-0.7,15.3-2.7C1134.6,1952.3,1132.5,1950.7,1130.5,1948.8"/>
	
		<linearGradient id="path12553_1_" gradientUnits="userSpaceOnUse" x1="539.0819" y1="3206.0217" x2="540.0819" y2="3206.0217" gradientTransform="matrix(0 159.4252 159.4252 0 -510017.4375 -84126.2656)">
		<stop  offset="0" style="stop-color:#166AB8"/>
		<stop  offset="0.4" style="stop-color:#36AEE8"/>
		<stop  offset="0.4" style="stop-color:#36AEE8"/>
		<stop  offset="0.8462" style="stop-color:#0798DD"/>
		<stop  offset="0.8462" style="stop-color:#0798DD"/>
		<stop  offset="1" style="stop-color:#0798DD"/>
	</linearGradient>
	<path id="path12553" class="st6" d="M1075.5,1840c27.2,14.2,29.5,78.6,51.2,104.7l0,0c1.5-1,2.9-2.1,4.3-3.3l0,0
		c-13.6-30.1-17.5-96.1-47.8-103.6l0,0C1080.7,1838.3,1078.1,1839,1075.5,1840"/>
	
		<linearGradient id="path12581_1_" gradientUnits="userSpaceOnUse" x1="538.683" y1="3205.8704" x2="539.683" y2="3205.8704" gradientTransform="matrix(0 169.5276 169.5276 0 -542392.75 -89503.8203)">
		<stop  offset="0" style="stop-color:#124379"/>
		<stop  offset="0.39" style="stop-color:#1487CB"/>
		<stop  offset="0.39" style="stop-color:#1487CB"/>
		<stop  offset="0.7802" style="stop-color:#165197"/>
		<stop  offset="0.7802" style="stop-color:#165197"/>
		<stop  offset="1" style="stop-color:#165197"/>
	</linearGradient>
	<path id="path12581" class="st7" d="M1054.7,1852.6c20.8,28.5,28.3,87.8,55.3,101l0,0c5.5-2,11.1-5,16.7-8.9l0,0
		c-21.7-26.1-24-90.5-51.2-104.7l0,0C1068.6,1842.6,1061.7,1846.9,1054.7,1852.6"/>
	
		<linearGradient id="path12651_1_" gradientUnits="userSpaceOnUse" x1="1591.3951" y1="870.3181" x2="1597.3301" y2="870.3181" gradientTransform="matrix(4.0385 0 0 -4.0385 -5404.2139 5384.6587)">
		<stop  offset="0" style="stop-color:#33BDF2;stop-opacity:0.698"/>
		<stop  offset="1" style="stop-color:#1DACD8"/>
	</linearGradient>
	<path id="path12651" class="st8" d="M1033.3,1859.2c-3.3,7.4-6.6,17.1-10.6,29.8c8-11.3,16-21,24-28.9c-1.1-3.4-2.3-6.5-3.5-9.2
		C1039.8,1853.3,1036.6,1856.1,1033.3,1859.2"/>
	<path id="path12655" class="st9" d="M1046,1848.7c-1,0.7-1.9,1.4-2.9,2.1c1.3,2.8,2.4,5.9,3.5,9.2c1.4-1.4,2.9-2.8,4.3-4.1
		C1049.4,1853.3,1047.8,1850.8,1046,1848.7"/>
	<path id="path12659" class="st10" d="M1049.4,1846.4c-1.1,0.7-2.3,1.5-3.4,2.3c1.8,2.2,3.4,4.6,5,7.3c1.3-1.1,2.5-2.3,3.8-3.3
		C1053.1,1850.3,1051.3,1848.2,1049.4,1846.4"/>
	
		<linearGradient id="path12741_1_" gradientUnits="userSpaceOnUse" x1="523.4241" y1="3200.0786" x2="524.4241" y2="3200.0786" gradientTransform="matrix(0 -119.0183 -119.0183 0 382070.7188 64246.8828)">
		<stop  offset="0" style="stop-color:#136AB4"/>
		<stop  offset="0.6" style="stop-color:#59CAF5;stop-opacity:0.549"/>
		<stop  offset="1" style="stop-color:#59CAF5;stop-opacity:0.2353"/>
	</linearGradient>
	<path id="path12741" class="st11" d="M1234.8,1834.5c-15.4,59.3-47.5,106.9-74.4,118.9h-0.1c-0.5,0.2-1,0.4-1.5,0.6
		c-0.1,0-0.1,0-0.2,0.1c-0.1,0.1-0.3,0.1-0.4,0.2c-0.1,0-0.1,0.1-0.2,0.1c-0.2,0.1-0.4,0.1-0.7,0.2c-0.1,0-0.2,0.1-0.3,0.1
		c-0.1,0-0.2,0.1-0.3,0.1c-0.1,0-0.2,0.1-0.3,0.1c-0.1,0-0.2,0.1-0.3,0.1c-0.2,0.1-0.4,0.1-0.6,0.2c-0.1,0-0.2,0-0.2,0.1
		c-0.1,0-0.3,0.1-0.4,0.1c-0.1,0-0.2,0.1-0.3,0.1c-0.1,0-0.3,0.1-0.4,0.1c-0.2,0-0.3,0.1-0.5,0.1c1.2,0.4,2.5,0.7,3.9,0.7
		c25.5,0,51.3-45.7,93.8-121.8L1234.8,1834.5L1234.8,1834.5z"/>
	
		<linearGradient id="path12803_1_" gradientUnits="userSpaceOnUse" x1="1570.3342" y1="863.2758" x2="1592.348" y2="863.2758" gradientTransform="matrix(4.0385 0 0 -4.0385 -5404.2139 5384.6587)">
		<stop  offset="0" style="stop-color:#05A1E6;stop-opacity:0.2471"/>
		<stop  offset="1" style="stop-color:#05A1E6"/>
	</linearGradient>
	<path id="path12803" class="st12" d="M1017.1,1839.5C1017.1,1839.5,1017.2,1839.5,1017.1,1839.5c0.1,0,0.1,0,0.1-0.1c0,0,0,0,0,0
		c0.1,0,0.3-0.1,0.4-0.2c0,0,0.1,0,0.1,0c0,0,0.1,0,0.1,0c0.2,0,0.3-0.1,0.4-0.2c0,0,0,0,0,0c0.3-0.1,0.7-0.2,1-0.3c0,0,0.1,0,0.1,0
		c0.1,0,0.3-0.1,0.4-0.1c0.1,0,0.1,0,0.2-0.1c0.1,0,0.3-0.1,0.4-0.1c0.1,0,0.1,0,0.2,0c0.5-0.1,0.9-0.3,1.4-0.4c0.1,0,0.1,0,0.2,0
		c0.1,0,0.3-0.1,0.4-0.1c0.1,0,0.1,0,0.2-0.1c0.1,0,0.3,0,0.4-0.1c0,0,0.1,0,0.1,0c0.3-0.1,0.6-0.1,0.9-0.2c0.1,0,0.1,0,0.2,0
		c0.1,0,0.3,0,0.4-0.1c0.1,0,0.2,0,0.2,0c0.1,0,0.3,0,0.4-0.1c0.1,0,0.1,0,0.2,0c0.3,0,0.6-0.1,0.9-0.1c-0.9-0.1-1.8-0.1-2.7-0.1
		c-28.7,0-68.3,53.3-86.2,122.4c0,0,1.3,0,3.4,0c5.7-10.2,10.8-19.8,15.5-28.9C969.1,1881.7,994.5,1848.4,1017.1,1839.5"/>
	<path id="path12807" class="st13" d="M1033.3,1859.2c3.3-3.1,6.5-5.9,9.8-8.4c-0.7-1.6-1.5-3.1-2.3-4.5
		C1038.1,1849.5,1035.7,1853.7,1033.3,1859.2"/>
	<path id="path12811" class="st13" d="M1035.7,1839.9c1.9,1.6,3.6,3.7,5.1,6.3c0.5-0.6,1-1.1,1.5-1.7c-2.1-2-4.4-3.6-6.9-4.9
		C1035.4,1839.8,1035.5,1839.9,1035.7,1839.9C1035.6,1839.9,1035.6,1839.9,1035.7,1839.9"/>
	
		<linearGradient id="path12831_1_" gradientUnits="userSpaceOnUse" x1="523.6335" y1="3200.158" x2="524.6335" y2="3200.158" gradientTransform="matrix(0 -121.8652 -121.8652 0 390974.5938 65765.4922)">
		<stop  offset="0" style="stop-color:#318ED5"/>
		<stop  offset="1" style="stop-color:#38A7E4"/>
	</linearGradient>
	<path id="path12831" class="st14" d="M956.6,1930.7c26.2-50.5,38.6-82.5,60.5-91.1l0,0C994.5,1848.4,969.1,1881.7,956.6,1930.7"/>
	<path id="path12843" class="st15" d="M1042.2,1844.6c-0.5,0.5-1,1.1-1.5,1.7c0.8,1.4,1.6,2.9,2.3,4.5c1-0.7,1.9-1.4,2.9-2.1
		C1044.8,1847.2,1043.5,1845.8,1042.2,1844.6"/>
	
		<linearGradient id="path12923_1_" gradientUnits="userSpaceOnUse" x1="523.3818" y1="3200.0625" x2="524.3818" y2="3200.0625" gradientTransform="matrix(0 -118.4596 -118.4596 0 380072.5625 63952.832)">
		<stop  offset="0" style="stop-color:#05A1E6"/>
		<stop  offset="1" style="stop-color:#05A1E6;stop-opacity:0.549"/>
	</linearGradient>
	<path id="path12923" class="st16" d="M968.5,1959.3L968.5,1959.3c-0.2,0-0.3,0-0.5,0.1c-0.1,0-0.1,0-0.1,0c-0.1,0-0.3,0-0.4,0
		c0,0-0.1,0-0.1,0c-0.3,0-0.7,0-1,0.1h-0.1c26.5-0.7,38.7-14,44.7-33.3c4.6-14.6,8.3-26.9,11.6-37.2c-11.1,15.6-22.3,34.3-33.5,55.2
		C983.8,1954.2,975.5,1958.4,968.5,1959.3"/>
	
		<linearGradient id="path12949_1_" gradientUnits="userSpaceOnUse" x1="521.7299" y1="3199.4353" x2="522.7299" y2="3199.4353" gradientTransform="matrix(0 -100.1002 -100.1002 0 321265 54184.5391)">
		<stop  offset="0" style="stop-color:#1959A6"/>
		<stop  offset="0.5" style="stop-color:#05A1E6"/>
		<stop  offset="0.5" style="stop-color:#05A1E6"/>
		<stop  offset="0.9176" style="stop-color:#7EC5EA"/>
		<stop  offset="1" style="stop-color:#7EC5EA"/>
	</linearGradient>
	<path id="path12949" class="st17" d="M968.5,1959.3L968.5,1959.3c7.1-0.9,15.3-5.1,20.7-15.2l0,0c11.2-20.9,22.4-39.5,33.5-55.2
		l0,0c4-12.7,7.4-22.4,10.6-29.8l0,0C1011.2,1880.2,989,1915.3,968.5,1959.3"/>
	<path id="path12961" class="st18" d="M956.6,1930.7c-4.7,9-9.8,18.7-15.5,28.9c2.5,0,6,0,10,0
		C952.4,1949.4,954.2,1939.8,956.6,1930.7"/>
	
		<linearGradient id="path12981_1_" gradientUnits="userSpaceOnUse" x1="522.2162" y1="3201.5435" x2="523.2164" y2="3201.5435" gradientTransform="matrix(-19.138 -108.5369 -108.5369 19.138 358484.5312 -2638.4182)">
		<stop  offset="0" style="stop-color:#165096"/>
		<stop  offset="1" style="stop-color:#0D82CA"/>
	</linearGradient>
	<path id="path12981" class="st19" d="M1025.6,1837.4c-0.1,0-0.1,0-0.2,0l0,0c-0.1,0-0.2,0-0.4,0.1l0,0c-0.1,0-0.1,0-0.2,0l0,0
		c-0.1,0-0.3,0-0.4,0.1l0,0c-0.1,0-0.1,0-0.2,0l0,0c-0.3,0-0.6,0.1-0.9,0.1l0,0c0,0-0.1,0-0.1,0l0,0c-0.1,0-0.3,0.1-0.4,0.1l0,0
		c-0.1,0-0.1,0-0.2,0.1l0,0c-0.1,0-0.3,0.1-0.4,0.1l0,0c-0.1,0-0.1,0-0.2,0l0,0c-0.5,0.1-0.9,0.2-1.4,0.4l0,0c0,0-0.1,0-0.2,0l0,0
		c-0.1,0-0.3,0.1-0.4,0.1l0,0c-0.1,0-0.1,0-0.2,0.1l0,0c-0.1,0-0.3,0.1-0.4,0.1l0,0c-0.1,0-0.1,0-0.2,0l0,0c-0.3,0.1-0.6,0.2-1,0.3
		l0,0l0,0l0,0c-0.1,0-0.3,0.1-0.4,0.2l0,0c-0.1,0-0.1,0-0.2,0.1l0,0c-0.1,0-0.3,0.1-0.4,0.2l0,0c0,0-0.1,0-0.1,0.1l0,0
		c-21.9,8.7-34.3,40.6-60.5,91.1l0,0c-2.3,9.1-4.2,18.7-5.5,28.8l0,0h1.4c4,0,5.1,0,9.6,0l0,0h0.2h0.7h0.2h0.1h0.2h0.1h0.1h0.2h0.6
		h0.6h0.5h0.1c0.3,0,0.6,0,0.8,0l0,0c0.3,0,0.6,0,1-0.1l0,0c0,0,0.1,0,0.1,0l0,0c0.1,0,0.3,0,0.4,0l0,0c0.1,0,0.1,0,0.1,0l0,0
		c0.1,0,0.3,0,0.5-0.1l0,0l0,0c20.5-44,42.7-79,64.8-100.1l0,0c2.4-5.5,4.8-9.7,7.5-12.9l0,0c-1.5-2.6-3.2-4.8-5.1-6.3l0,0
		c0,0-0.1,0-0.1,0l0,0c-0.1,0-0.2-0.1-0.3-0.1l0,0c-0.1-0.1-0.2-0.1-0.3-0.2l0,0c-0.1,0-0.2-0.1-0.3-0.1l0,0c-0.1,0-0.2-0.1-0.4-0.1
		l0,0c-0.1,0-0.2-0.1-0.3-0.1l0,0c-0.2-0.1-0.4-0.2-0.6-0.2l0,0c-0.1,0-0.2-0.1-0.2-0.1l0,0c-0.1,0-0.3-0.1-0.4-0.2l0,0
		c-0.1,0-0.2,0-0.2-0.1l0,0c-0.2-0.1-0.4-0.1-0.6-0.2l0,0c-0.1,0-0.1,0-0.1,0l0,0c-0.2-0.1-0.5-0.1-0.7-0.2l0,0c-0.1,0-0.1,0-0.2,0
		l0,0c-0.2-0.1-0.4-0.1-0.6-0.2l0,0c-0.1,0-0.1,0-0.1,0l0,0c-0.5-0.1-1-0.2-1.5-0.3l0,0c-0.1,0-0.1,0-0.2,0l0,0
		c-0.2,0-0.4-0.1-0.6-0.1l0,0c-0.1,0-0.1,0-0.1,0l0,0c-0.3,0-0.5-0.1-0.7-0.1l0,0c-0.1,0-0.1,0-0.1,0l0,0c-0.2,0-0.4,0-0.6-0.1l0,0
		C1026.2,1837.4,1025.9,1837.4,1025.6,1837.4"/>
	
		<linearGradient id="path13003_1_" gradientUnits="userSpaceOnUse" x1="513.5776" y1="3196.3411" x2="514.5776" y2="3196.3411" gradientTransform="matrix(0 -56.7206 -56.7206 0 182480.7344 31021.9492)">
		<stop  offset="0" style="stop-color:#05A1E6"/>
		<stop  offset="0.8736" style="stop-color:#0495D6"/>
		<stop  offset="1" style="stop-color:#0495D6"/>
	</linearGradient>
	<path id="path13003" class="st20" d="M1174.8,1867.3c-5,16.2-9.1,29.5-12.7,40.4l0,0c13.8-19,27.5-43,40.4-70.6l0,0
		C1187.4,1841.9,1179.3,1852.8,1174.8,1867.3"/>
	
		<linearGradient id="path13093_1_" gradientUnits="userSpaceOnUse" x1="539.7714" y1="3207.8794" x2="540.7714" y2="3207.8794" gradientTransform="matrix(-23.0627 130.7947 130.7947 23.0627 -405916.0938 -142751.9531)">
		<stop  offset="0" style="stop-color:#38A7E4;stop-opacity:0.3294"/>
		<stop  offset="0.9615" style="stop-color:#0E88D3"/>
		<stop  offset="0.9615" style="stop-color:#0E88D3"/>
		<stop  offset="1" style="stop-color:#0E88D3"/>
	</linearGradient>
	<path id="path13093" class="st21" d="M1162.5,1952.4c-0.7,0.4-1.4,0.7-2.1,1c26.9-12,59-59.6,74.4-118.9h-3.1
		C1196.4,1897.6,1185,1939.8,1162.5,1952.4"/>
	<path id="path13097" class="st22" d="M1144.9,1947.1c5.9-7.1,10.6-19.3,17.1-39.3c-7.5,10.3-15.1,19.2-22.6,26.4c0,0,0,0,0,0.1
		C1141,1939.2,1142.9,1943.6,1144.9,1947.1"/>
	<path id="path13101" class="st5" d="M1144.9,1947.1c-2,2.4-4.1,4.3-6.5,5.7c-0.5,0.3-1,0.6-1.6,0.8c2.5,1.3,5.2,2.2,8.2,2.6l0,0
		l0,0c0.4,0,0.9,0.1,1.3,0.1h0.1c0.2,0,0.4,0,0.6,0h0.1c0.2,0,0.4,0,0.7,0c0.2,0,0.5,0,0.7,0c0.1,0,0.1,0,0.2,0c0.2,0,0.3,0,0.5,0
		c0.1,0,0.2,0,0.2,0c0.2,0,0.3,0,0.5,0c0,0,0,0,0.1,0c0.1,0,0.1,0,0.2,0c0.2,0,0.3,0,0.5-0.1h0c0.1,0,0.1,0,0.2,0
		c0.2,0,0.4-0.1,0.6-0.1c0.1,0,0.1,0,0.2,0c0.2,0,0.4-0.1,0.6-0.1h0c0,0,0,0,0.1,0c0.4-0.1,0.8-0.2,1.3-0.3
		C1150.3,1954.4,1147.4,1951.4,1144.9,1947.1"/>
	<path id="path13105" class="st23" d="M1095.3,1956.3c2.5,0,5.1-0.2,7.6-0.7c2.4-0.4,4.7-1.1,7.1-1.9c2,1,4,1.7,6.2,2.1
		c1.7,0.3,3.5,0.5,5.3,0.5H1095.3z"/>
	<path id="path13109" class="st23" d="M1121.6,1956.3c6.2,0,11.1-0.7,15.3-2.7c2.5,1.3,5.2,2.2,8.2,2.6l0,0l0,0
		c0.4,0,0.9,0.1,1.3,0.1h0.1c0.2,0,0.4,0,0.6,0h0.1c0.2,0,0.4,0,0.7,0L1121.6,1956.3L1121.6,1956.3z"/>
	<path id="path13113" class="st24" d="M1148,1956.3c0.2,0,0.5,0,0.7,0c0.1,0,0.1,0,0.2,0c0.2,0,0.3,0,0.5,0c0.1,0,0.2,0,0.2,0
		c0.2,0,0.3,0,0.5,0c0,0,0,0,0.1,0c0.1,0,0.1,0,0.2,0c0.2,0,0.3,0,0.5-0.1c0,0,0,0,0,0c0.1,0,0.1,0,0.2,0c0.2,0,0.4-0.1,0.6-0.1
		c0.1,0,0.1,0,0.2,0c0.2,0,0.4-0.1,0.6-0.1h0c0,0,0,0,0.1,0c0.4-0.1,0.8-0.2,1.3-0.3l0,0c1.2,0.4,2.5,0.7,3.9,0.7L1148,1956.3
		L1148,1956.3z"/>
	<path id="path13117" class="st25" d="M1139.4,1934.2L1139.4,1934.2c-2.8,2.6-5.5,5-8.3,7.2c-1.4,1.1-2.9,2.2-4.3,3.3
		c1.2,1.5,2.5,2.8,3.8,4.1c2,1.9,4.1,3.5,6.4,4.8c0.5-0.3,1.1-0.5,1.6-0.8c2.4-1.4,4.5-3.2,6.5-5.7
		C1142.9,1943.6,1141.1,1939.2,1139.4,1934.2"/>
	
		<linearGradient id="path13139_1_" gradientUnits="userSpaceOnUse" x1="541.0118" y1="3206.7542" x2="542.0118" y2="3206.7542" gradientTransform="matrix(0 123.7424 123.7424 0 -395623.25 -65111.9844)">
		<stop  offset="0" style="stop-color:#168CD4"/>
		<stop  offset="0.5" style="stop-color:#1C87CC"/>
		<stop  offset="1" style="stop-color:#154B8D"/>
	</linearGradient>
	<path id="path13139" class="st26" d="M1221.8,1834.5h-13.1c-0.4,0-0.9,0-1.3,0l0,0c-0.4,0-0.8,0-1.2,0l0,0h0
		c-0.8,0-1.7,0.1-2.5,0.1l0,0c-0.4,0.8-0.8,1.6-1.2,2.5l0,0c-13,27.6-26.6,51.6-40.4,70.6l0,0c-6.5,20-11.3,32.2-17.1,39.3l0,0
		c2.5,4.3,5.4,7.3,8.9,8.5l0,0c0.1,0,0.2,0,0.3-0.1l0,0c0,0,0.1,0,0.1,0l0,0c0.1,0,0.1,0,0.2,0l0,0c0.1,0,0.3-0.1,0.4-0.1l0,0
		c0.1,0,0.2,0,0.3-0.1l0,0c0.1,0,0.3-0.1,0.4-0.1l0,0c0.1,0,0.2-0.1,0.2-0.1l0,0c0.2-0.1,0.4-0.1,0.6-0.2l0,0c0.1,0,0.2-0.1,0.3-0.1
		l0,0c0.1,0,0.2-0.1,0.3-0.1l0,0c0.1,0,0.2-0.1,0.3-0.1l0,0c0.1,0,0.2-0.1,0.3-0.1l0,0c0.2-0.1,0.4-0.1,0.7-0.2l0,0
		c0.1,0,0.1-0.1,0.2-0.1l0,0c0.1-0.1,0.3-0.1,0.4-0.2l0,0c0.1,0,0.1,0,0.2-0.1l0,0c0.5-0.2,1-0.4,1.5-0.6l0,0h0.1l0,0
		c0.7-0.3,1.4-0.7,2.1-1l0,0c22.5-12.6,33.9-54.8,69.2-117.9l0,0L1221.8,1834.5L1221.8,1834.5z"/>
	<path id="path13231" class="st27" d="M1026.5,1837.3c0.1,0,0.1,0,0.2,0c0.1,0,0.3,0,0.4,0c0.1,0,0.1,0,0.1,0c0.2,0,0.5,0.1,0.7,0.1
		c0,0,0.1,0,0.1,0c0.2,0,0.4,0.1,0.6,0.1c0,0,0.1,0,0.2,0c0.5,0.1,1,0.2,1.5,0.3c0,0,0.1,0,0.1,0c0.2,0,0.4,0.1,0.6,0.2
		c0.1,0,0.1,0,0.2,0c0.2,0.1,0.5,0.1,0.7,0.2c0,0,0,0,0.1,0c0.2,0.1,0.4,0.1,0.6,0.2c0.1,0,0.2,0.1,0.2,0.1c0.1,0.1,0.3,0.1,0.4,0.2
		c0.1,0,0.2,0.1,0.2,0.1c0.2,0.1,0.4,0.2,0.6,0.2c0.1,0,0.2,0.1,0.3,0.1c0.1,0.1,0.2,0.1,0.3,0.1c0.1,0,0.2,0.1,0.3,0.1
		c0.1,0.1,0.2,0.1,0.3,0.2c2.5,1.2,4.8,2.9,6.9,4.9c0.8-0.8,1.6-1.6,2.5-2.2c-4.7-3.3-10-5.2-16.1-5.2
		C1027.9,1837.2,1027.2,1837.3,1026.5,1837.3"/>
	<path id="path13235" class="st28" d="M1042.2,1844.6c1.3,1.2,2.6,2.6,3.7,4c1.1-0.8,2.3-1.6,3.4-2.3c-1.5-1.5-3.1-2.8-4.7-4
		C1043.8,1843,1043,1843.8,1042.2,1844.6"/>
	<g id="g13243" transform="matrix(5.0481458,0,0,-5.0481458,-9064.2597,2270.6096)">
		
			<linearGradient id="path13245_1_" gradientUnits="userSpaceOnUse" x1="1906.0502" y1="-179.464" x2="1907.0502" y2="-179.464" gradientTransform="matrix(28.5033 -11.8223 -11.8223 -28.5033 -54450.668 17505.6426)">
			<stop  offset="0" style="stop-color:#97D6EE"/>
			<stop  offset="0.7033" style="stop-color:#55C1EA"/>
			<stop  offset="1" style="stop-color:#55C1EA"/>
		</linearGradient>
		<path id="path13245" class="st29" d="M1998.9,85.8c0.1,0,0.3,0,0.4,0c1.2,0,2.3-0.4,3.2-1c1,0.8,2.2,1,3.8,1h-7.9
			C1998.6,85.9,1998.7,85.9,1998.9,85.8"/>
	</g>
	<g id="g13253" transform="matrix(5.0481458,0,0,-5.0481458,-9064.2597,2270.6096)">
		
			<linearGradient id="path13255_1_" gradientUnits="userSpaceOnUse" x1="1900.45" y1="-175.6663" x2="1901.45" y2="-175.6663" gradientTransform="matrix(22.5118 10.2054 10.2054 -22.5118 -38986.9258 -23265.2012)">
			<stop  offset="0" style="stop-color:#7ACCEC"/>
			<stop  offset="1" style="stop-color:#3FB7ED"/>
		</linearGradient>
		<path id="path13255" class="st30" d="M2006.3,85.9c-1.6,0-2.8-0.3-3.8-1c0.3-0.2,0.6-0.5,0.9-0.8c1.4,0.9,2.7,1.4,4,1.7
			c0.5,0.1,1,0.1,1.5,0.1L2006.3,85.9L2006.3,85.9z"/>
	</g>
	
		<linearGradient id="path13333_1_" gradientUnits="userSpaceOnUse" x1="541.2049" y1="3206.8276" x2="542.2049" y2="3206.8276" gradientTransform="matrix(0 121.0325 121.0325 0 -386958.7812 -63662.4023)">
		<stop  offset="0" style="stop-color:#1DA7E7"/>
		<stop  offset="1" style="stop-color:#37ABE7;stop-opacity:0"/>
	</linearGradient>
	<path id="path13333" class="st31" d="M1162.1,1907.8c3.6-11,7.6-24.3,12.7-40.5c4.6-14.6,12.6-25.4,27.8-30.2
		c0.4-0.8,0.8-1.7,1.2-2.5c-24.7,1.5-36.2,14-42,32.6c-10.2,32.5-16.3,53.5-22.2,66.9C1147,1927,1154.6,1918.1,1162.1,1907.8"/>
</g>
</svg>
